<?xml version="1.0" encoding="utf-8"?>
<svg version="1.1" viewBox="0.00 0.00 1640.00 980.00" xmlns="http://www.w3.org/2000/svg">
  <g stroke-width="2.00" fill="none" stroke-linecap="butt">
    <path stroke="#fbca8f" vector-effect="non-scaling-stroke" d=" M 684.48 278.64 Q 682.32 280.02 680.07 281.39 C 564.78 351.47 528.28 499.64 596.91 615.57 Q 600.35 621.39 603.53 625.54"/>
    <path stroke="#8889a0" vector-effect="non-scaling-stroke" d=" M 603.53 625.54 Q 600.36 629.81 598.62 631.86 C 588.51 643.80 575.41 657.44 565.73 672.01 C 560.68 679.64 574.52 695.30 579.98 699.68 A 1.63 1.63 0.0 0 1 580.53 701.38 Q 574.09 724.54 572.93 748.24 C 572.56 755.63 574.73 761.01 581.02 765.04 C 585.93 768.18 591.32 768.37 596.71 769.57 Q 601.48 770.63 603.49 770.74 C 621.51 771.74 640.43 760.02 653.65 748.83 Q 654.03 748.51 654.47 748.73 Q 671.95 757.37 691.38 758.73 Q 693.51 758.88 696.50 759.83 C 704.41 762.36 711.14 759.43 718.76 757.44 Q 719.54 757.24 720.02 757.89 C 721.65 760.10 723.71 761.76 726.30 763.02 C 738.05 768.69 753.81 771.00 766.00 765.15 A 0.30 0.30 0.0 0 1 766.42 765.51 Q 760.49 783.71 747.82 798.06 Q 746.05 800.06 747.53 802.01 C 751.22 806.84 755.73 804.76 759.32 801.06 C 771.47 788.54 777.86 770.72 780.86 754.00 A 0.90 0.89 5.0 0 1 781.74 753.27 L 832.22 753.26 A 0.71 0.70 -14.2 0 1 832.84 753.62 C 842.74 771.16 866.58 770.45 882.68 763.80 C 886.09 762.39 888.16 760.01 890.49 757.28 A 1.24 1.22 27.7 0 1 891.74 756.90 C 898.35 758.68 907.68 762.33 914.26 760.35 Q 919.35 758.81 923.02 758.53 C 935.75 757.57 946.55 753.93 958.10 748.74 Q 958.57 748.52 958.97 748.86 C 972.20 760.11 990.53 771.29 1008.27 770.76 C 1012.70 770.63 1017.94 769.03 1023.00 768.26 C 1031.89 766.91 1039.57 760.55 1039.58 751.00 C 1039.59 734.30 1036.30 717.07 1031.98 700.98 Q 1031.85 700.50 1032.21 700.15 Q 1033.64 698.73 1035.12 697.35 Q 1044.01 689.04 1047.78 677.43 Q 1048.62 674.83 1047.48 672.97 C 1036.80 655.62 1022.44 643.27 1008.97 625.45"/>
    <path stroke="#fbca8f" vector-effect="non-scaling-stroke" d=" M 1008.97 625.45 C 1086.16 510.35 1050.94 353.94 933.14 281.87 Q 931.92 281.13 930.51 280.87"/>
    <path stroke="#8889a0" vector-effect="non-scaling-stroke" d=" M 930.51 280.87 Q 930.17 280.49 930.00 279.49 C 925.81 254.57 913.94 230.46 895.37 213.20 C 870.99 190.53 840.66 179.32 807.50 177.49 Q 804.74 177.33 802.00 177.65 C 769.43 181.38 739.33 194.87 716.44 218.51 C 712.19 222.90 707.85 228.33 703.71 233.39 Q 697.99 240.38 695.26 245.37 C 689.62 255.67 686.53 267.35 684.48 278.64"/>
    <path stroke="#845330" vector-effect="non-scaling-stroke" d=" M 930.51 280.87 Q 930.14 280.99 930.19 281.50 Q 932.52 302.29 928.13 322.20 C 927.31 325.91 926.43 328.21 927.20 331.95 Q 930.89 349.93 929.75 364.75 C 927.37 395.52 909.65 423.31 890.54 446.74 Q 888.74 448.95 887.70 451.70 C 882.73 464.89 875.75 478.92 866.17 489.59 C 863.13 492.99 862.47 497.29 862.16 501.59 A 0.58 0.58 0.0 0 0 862.75 502.21 C 872.63 502.15 883.09 505.77 888.96 514.09 C 890.44 516.19 891.95 520.62 894.46 522.59 C 904.42 530.42 918.11 534.63 932.86 538.99 C 947.14 543.23 960.58 548.38 972.54 557.44 C 979.98 563.08 984.61 571.89 987.84 580.45 C 993.72 596.02 998.12 611.73 1008.97 625.45"/>
    <path stroke="#845330" vector-effect="non-scaling-stroke" d=" M 603.53 625.54 Q 612.25 614.44 616.94 601.47 C 622.45 586.25 626.97 571.24 637.61 558.60 C 646.97 547.48 661.39 542.34 675.00 538.72 C 689.89 534.75 704.76 530.31 718.38 522.93 A 2.90 2.89 -3.3 0 0 719.70 521.45 Q 720.43 519.58 721.49 517.27 C 727.30 504.60 739.60 500.65 752.65 501.42 A 0.58 0.57 -88.6 0 0 753.26 500.83 L 753.08 491.59 Q 753.08 491.16 752.78 490.86 Q 734.49 472.75 724.31 449.07 Q 723.94 448.20 723.19 447.56 Q 705.54 432.53 696.56 411.11 C 689.28 393.76 684.17 372.53 682.55 355.00 Q 681.23 340.82 681.33 318.50 Q 681.41 298.32 684.48 278.64"/>
    <path stroke="#393f5b" vector-effect="non-scaling-stroke" d=" M 747.12 202.06 C 730.65 211.60 719.26 223.62 707.54 238.22 C 700.41 247.09 696.16 255.31 693.44 265.75 Q 688.70 283.97 687.74 303.49 C 685.94 340.45 688.23 379.39 704.26 413.48 C 712.21 430.37 729.29 444.60 743.44 456.22 Q 744.03 456.70 743.27 456.67 C 740.11 456.54 737.14 455.40 734.31 454.31 Q 733.12 453.85 733.71 454.98 Q 737.85 462.90 742.32 470.95 Q 749.09 483.14 761.47 490.44"/>
    <path stroke="#565c79" vector-effect="non-scaling-stroke" d=" M 761.47 490.44 Q 765.45 494.30 770.82 498.17 C 786.01 509.09 804.62 516.04 823.18 509.41 Q 834.61 505.33 845.91 497.37"/>
    <path stroke="#393f5b" vector-effect="non-scaling-stroke" d=" M 845.91 497.37 C 863.53 488.47 872.43 473.00 879.57 455.98 A 0.22 0.21 -83.1 0 0 879.34 455.68 L 870.36 457.23 A 0.79 0.79 0.0 0 1 869.92 455.73 Q 872.16 454.79 873.39 452.71"/>
    <path stroke="#8889a0" vector-effect="non-scaling-stroke" d=" M 873.39 452.71 Q 885.77 442.18 899.03 424.77 C 917.28 400.81 927.19 372.11 922.70 341.89 C 920.99 330.42 916.89 321.43 909.66 312.78"/>
    <path stroke="#393f5b" vector-effect="non-scaling-stroke" d=" M 909.66 312.78 L 904.63 306.47"/>
    <path stroke="#565c79" vector-effect="non-scaling-stroke" d=" M 904.63 306.47 L 898.28 299.12 A 0.50 0.47 27.3 0 1 898.16 298.78 Q 898.17 298.13 898.74 298.28 Q 901.61 299.04 905.38 300.47"/>
    <path stroke="#393f5b" vector-effect="non-scaling-stroke" d=" M 905.38 300.47 Q 911.83 303.77 917.10 308.49"/>
    <path stroke="#8889a0" vector-effect="non-scaling-stroke" d=" M 917.10 308.49 Q 920.62 312.47 922.55 316.95 A 0.23 0.23 0.0 0 0 922.98 316.90 Q 927.84 291.51 921.02 266.74 Q 914.11 241.68 894.86 221.09"/>
    <path stroke="#393f5b" vector-effect="non-scaling-stroke" d=" M 894.86 221.09 Q 882.09 207.98 865.85 199.49"/>
    <path stroke="#565c79" vector-effect="non-scaling-stroke" d=" M 865.85 199.49 C 849.03 189.52 827.00 184.45 807.65 183.52 Q 805.65 183.43 803.00 183.72 Q 781.58 186.12 762.26 194.23 Q 754.08 197.66 747.12 202.06"/>
    <path stroke="#7e8994" vector-effect="non-scaling-stroke" d=" M 865.85 199.49 Q 865.80 201.13 867.18 201.96 Q 867.59 202.21 867.40 202.65 Q 867.26 202.98 867.54 202.86 A 0.39 0.38 52.5 0 1 867.95 202.92 Q 889.71 221.35 900.67 247.38 C 903.42 253.92 904.37 259.42 905.28 266.50 Q 907.60 284.50 905.38 300.47"/>
    <path stroke="#7e8994" vector-effect="non-scaling-stroke" d=" M 904.63 306.47 C 902.10 314.31 899.83 321.46 895.19 328.34 Q 893.79 330.43 888.85 335.70 Q 885.58 339.18 882.71 343.26"/>
    <path stroke="#565c79" vector-effect="non-scaling-stroke" d=" M 882.71 343.26 Q 873.76 343.04 870.49 343.23 Q 848.09 344.52 833.96 360.30 Q 832.66 361.75 834.35 360.78 Q 843.16 355.72 853.15 353.70 Q 853.25 353.68 853.28 353.78 L 853.36 354.03 Q 853.36 354.04 853.35 354.05 C 838.13 359.79 828.35 373.01 829.17 389.35 Q 829.68 399.68 835.46 407.59"/>
    <path stroke="#7e8994" vector-effect="non-scaling-stroke" d=" M 835.46 407.59 Q 836.75 409.69 837.93 411.01 C 839.30 412.54 841.60 413.09 843.31 414.72 A 0.33 0.33 0.0 0 1 843.08 415.29 L 832.15 415.33"/>
    <path stroke="#565c79" vector-effect="non-scaling-stroke" d=" M 832.15 415.33 Q 831.29 415.07 830.50 415.12 Q 829.86 415.15 830.11 415.74 Q 830.38 416.40 831.10 416.87"/>
    <path stroke="#7e8994" vector-effect="non-scaling-stroke" d=" M 831.10 416.87 Q 832.64 420.24 835.07 422.17 C 847.04 431.66 862.37 434.25 877.32 432.52 A 0.52 0.51 14.4 0 1 877.80 433.33 L 857.97 461.23 A 0.63 0.62 -72.9 0 0 858.49 462.22 L 869.17 462.02 A 0.57 0.57 0.0 0 1 869.72 462.78 C 865.78 473.91 860.19 482.23 852.07 490.55 Q 848.90 493.78 845.91 497.37"/>
    <path stroke="#7e8994" vector-effect="non-scaling-stroke" d=" M 761.47 490.44 Q 750.36 477.66 745.77 462.79 A 0.51 0.51 0.0 0 1 746.26 462.13 L 757.29 462.30 A 0.52 0.52 0.0 0 0 757.72 461.48 L 738.07 433.71 A 0.44 0.44 0.0 0 1 738.42 433.02 C 751.94 432.90 764.26 430.96 774.87 421.87 Q 777.38 419.72 778.18 417.13"/>
    <path stroke="#565c79" vector-effect="non-scaling-stroke" d=" M 778.18 417.13 Q 779.30 416.81 779.80 415.56 Q 780.03 414.98 779.42 415.08 L 776.02 415.61"/>
    <path stroke="#7e8994" vector-effect="non-scaling-stroke" d=" M 776.02 415.61 L 766.98 415.79 A 0.89 0.86 -0.0 0 1 766.07 414.91 Q 766.07 414.75 766.32 414.45 Q 766.47 414.26 766.73 414.17 Q 772.76 411.91 775.36 406.41"/>
    <path stroke="#565c79" vector-effect="non-scaling-stroke" d=" M 775.36 406.41 Q 777.08 404.07 777.96 401.47 Q 786.73 375.51 766.22 359.39 C 764.61 358.13 761.34 355.99 759.87 355.36 Q 753.02 352.40 760.21 354.40 Q 767.59 356.45 774.82 360.56 Q 776.76 361.67 775.47 359.75 Q 775.01 359.05 773.45 358.04"/>
    <path stroke="#7e8994" vector-effect="non-scaling-stroke" d=" M 773.45 358.04 Q 773.75 357.35 774.35 357.32 Q 774.75 357.29 775.28 357.73 Q 776.79 358.95 777.84 359.57 Q 779.45 360.53 778.31 359.04 C 767.14 344.50 748.90 335.73 730.40 338.06 A 3.33 3.31 64.1 0 1 727.60 337.08 C 711.46 320.50 707.66 298.53 709.26 276.13 C 710.04 265.19 711.30 255.57 715.37 246.08 C 721.14 232.64 728.94 221.90 738.95 211.26 Q 743.11 206.83 747.12 202.06"/>
    <path stroke="#393f5b" vector-effect="non-scaling-stroke" d=" M 773.45 358.04 C 755.84 340.77 730.33 340.41 708.25 347.16 Q 706.68 347.64 708.32 347.71 Q 717.51 348.09 727.49 348.94 Q 729.71 349.13 731.86 349.64 A 0.02 0.01 48.3 0 1 731.86 349.67 Q 715.72 350.57 701.88 358.16 A 2.97 2.91 -5.7 0 0 700.51 359.80 C 692.81 382.48 711.20 403.87 730.94 412.07 C 741.91 416.64 758.18 417.98 768.48 410.82 Q 771.74 408.55 775.36 406.41"/>
    <path stroke="#393f5b" vector-effect="non-scaling-stroke" d=" M 776.02 415.61 Q 760.90 420.44 745.26 419.86 C 719.18 418.90 704.04 402.53 697.81 378.39 Q 697.66 377.80 697.25 378.24 Q 697.07 378.43 697.09 378.76 C 698.13 402.95 715.05 420.05 738.25 424.57 Q 759.70 428.75 778.18 417.13"/>
    <path stroke="#b0b5ba" vector-effect="non-scaling-stroke" d=" M 909.66 312.78 Q 910.96 315.65 912.35 318.46 C 922.13 338.13 922.28 362.80 915.82 383.56 Q 909.73 403.13 898.57 420.31 Q 887.45 437.43 873.39 452.71"/>
    <path stroke="#393f5b" vector-effect="non-scaling-stroke" d=" M 831.10 416.87 C 835.20 418.98 839.45 421.53 843.56 422.88 Q 861.46 428.77 879.62 422.42 C 898.04 415.97 912.43 399.26 912.24 379.10 Q 912.24 378.97 912.18 378.92 Q 912.10 378.85 911.95 378.84 Q 911.78 378.83 911.73 379.00 C 906.06 401.17 891.68 417.50 867.73 419.67 Q 849.56 421.32 832.15 415.33"/>
    <path stroke="#393f5b" vector-effect="non-scaling-stroke" d=" M 835.46 407.59 C 859.77 424.33 889.35 413.50 904.62 390.63 Q 913.89 376.75 909.46 360.53 Q 908.99 358.82 907.23 357.87 Q 893.78 350.62 879.01 349.81 Q 876.76 349.68 879.00 349.43 Q 889.44 348.22 899.95 347.72 Q 904.15 347.52 900.03 346.71 L 882.71 343.26"/>
    <path stroke="#b0b5ba" vector-effect="non-scaling-stroke" d=" M 894.86 221.09 Q 907.24 241.84 914.10 263.42 Q 921.13 285.52 917.10 308.49"/>
    <path stroke="#393f5b" vector-effect="non-scaling-stroke" d=" M 869.63 532.35 C 855.78 527.74 855.14 509.25 858.30 497.74 Q 858.47 497.11 858.42 497.03 Q 857.88 496.09 857.02 496.76 C 843.60 507.33 826.24 517.81 808.67 518.19 C 791.34 518.57 772.55 508.46 760.01 497.28 A 0.48 0.47 -70.4 0 0 759.22 497.66 C 759.89 511.88 755.39 525.76 742.63 533.31 A 0.84 0.84 0.0 0 0 742.46 534.62 C 749.36 541.67 759.28 546.53 768.57 549.51 Q 802.06 560.26 836.45 552.52 C 849.65 549.55 861.83 543.92 869.95 533.38 A 0.66 0.66 0.0 0 0 869.63 532.35"/>
    <path stroke="#153c79" vector-effect="non-scaling-stroke" d=" M 748.02 508.71 Q 748.98 509.72 747.95 510.44 Q 740.54 515.64 738.69 523.48 Q 738.13 525.86 738.92 527.27 Q 739.55 528.41 740.62 527.66 Q 750.61 520.60 752.53 508.40 Q 752.62 507.88 752.12 507.68 Q 751.02 507.24 749.77 507.38"/>
    <path stroke="#8889a0" vector-effect="non-scaling-stroke" d=" M 749.77 507.38 C 734.76 507.48 722.46 516.40 725.60 532.68 C 732.38 567.76 780.69 572.61 808.25 573.05 Q 822.83 573.28 843.25 569.10 C 863.65 564.91 887.46 553.47 887.60 529.06 C 887.68 514.62 875.10 508.53 862.28 508.15 Q 861.73 508.13 861.60 508.67 Q 861.48 509.20 861.69 509.72 Q 861.89 510.25 862.43 510.40 C 873.51 513.55 880.55 520.69 876.68 533.11 Q 875.78 535.99 873.39 538.83 C 865.43 548.26 853.64 554.47 842.02 557.51 C 809.83 565.91 767.64 563.17 740.55 541.22 Q 737.14 538.47 736.28 536.75 C 730.06 524.45 736.53 513.82 748.02 508.71"/>
    <path stroke="#8cb3d8" vector-effect="non-scaling-stroke" d=" M 749.77 507.38 Q 749.69 508.04 748.02 508.71"/>
    <path stroke="#153c79" vector-effect="non-scaling-stroke" d=" M 866.55 524.35 L 869.88 526.13 Q 872.50 527.54 871.98 524.61 C 871.07 519.42 867.59 515.11 863.58 511.51 Q 861.05 509.25 861.69 512.58 L 863.05 519.59 A 6.89 6.89 0.0 0 0 866.55 524.35"/>
    <path stroke="#153c79" vector-effect="non-scaling-stroke" d=" M 892.25 538.80 Q 890.44 546.45 886.47 551.72 C 875.93 565.77 858.85 572.06 841.74 575.47 Q 813.65 581.06 786.10 577.62 C 762.60 574.68 736.37 568.20 723.69 545.91 Q 722.93 544.57 722.22 542.38 Q 721.56 540.34 720.81 538.82"/>
    <path stroke="#8889a0" vector-effect="non-scaling-stroke" d=" M 720.81 538.82 L 719.17 530.01 A 0.45 0.45 0.0 0 0 718.52 529.69 C 703.84 537.31 687.79 541.49 672.02 546.00 C 662.21 548.80 654.74 551.90 646.97 557.55 Q 646.54 557.87 647.07 557.93 L 655.22 558.82"/>
    <path stroke="#153c79" vector-effect="non-scaling-stroke" d=" M 655.22 558.82 Q 657.51 560.09 659.53 561.16 C 670.50 566.97 675.50 578.99 676.28 590.83 Q 676.29 590.92 676.35 591.15 Q 676.41 591.37 676.29 591.48 A 0.35 0.35 0.0 0 1 675.72 591.34 C 671.54 578.65 663.33 566.13 649.00 564.53"/>
    <path stroke="#8889a0" vector-effect="non-scaling-stroke" d=" M 649.00 564.53 L 641.04 564.75 A 1.21 1.17 19.4 0 0 640.21 565.13 C 636.04 569.67 632.78 576.55 630.56 582.25 C 625.77 594.49 621.59 608.85 615.07 619.52 C 606.28 633.91 591.07 649.07 581.83 660.33 Q 575.76 667.73 570.68 675.59 A 1.00 0.97 52.4 0 0 570.58 676.45 Q 574.28 686.60 582.40 693.66"/>
    <path stroke="#153c79" vector-effect="non-scaling-stroke" d=" M 582.40 693.66 Q 582.54 692.83 582.79 692.45 Q 582.93 692.25 583.00 692.01 L 586.82 679.10 A 0.41 0.40 -86.3 0 0 586.37 678.58 Q 584.17 678.95 581.98 679.69 Q 577.20 681.32 580.79 677.77 C 586.97 671.63 596.64 669.50 605.63 669.71 Q 624.55 670.16 640.06 680.97 C 646.63 685.55 650.26 690.80 651.77 698.43 A 0.74 0.74 0.0 0 1 651.28 699.27 Q 650.78 699.44 650.37 698.86 Q 648.77 696.59 646.71 694.99 A 0.64 0.64 0.0 0 0 645.69 695.38 L 644.90 699.85 A 0.89 0.89 0.0 0 0 645.78 700.89 C 648.83 700.86 652.21 701.00 654.67 698.83 Q 659.89 694.21 662.22 687.47 C 670.89 662.34 677.09 634.90 678.10 608.26 Q 678.20 605.63 678.64 608.23 Q 682.58 631.59 677.86 654.79 Q 677.51 656.48 678.82 655.35 Q 680.83 653.59 684.00 652.75 Q 698.99 648.78 713.99 644.78 Q 723.51 642.24 727.70 642.70 Q 737.20 643.75 742.33 653.36 Q 742.99 654.60 743.78 655.83 A 1.07 1.06 -12.7 0 0 744.55 656.31 C 758.79 658.09 772.59 663.57 786.22 667.88 Q 804.86 673.78 823.46 667.88 C 838.24 663.20 852.21 657.19 868.37 656.09 Q 868.89 656.06 869.06 655.57 C 872.22 646.81 881.94 640.36 891.21 642.83 Q 909.53 647.72 927.84 652.63 C 930.22 653.27 932.05 654.12 933.97 655.43 A 0.40 0.39 11.6 0 0 934.58 655.03 Q 930.22 631.49 933.89 607.77 Q 934.37 604.63 934.57 607.80 C 934.96 614.18 935.23 621.13 936.08 627.37 Q 940.16 657.35 949.84 686.03 C 951.24 690.20 953.77 694.34 955.33 698.81 A 1.08 1.07 -5.0 0 0 956.18 699.52 L 966.58 701.09 A 1.02 1.02 0.0 0 0 967.74 699.88 L 966.82 695.24 A 0.67 0.67 0.0 0 0 965.67 694.92 L 962.12 698.83 A 0.72 0.72 0.0 0 1 961.68 699.05 Q 960.45 699.17 960.76 697.97 C 962.56 691.10 965.83 685.76 971.78 681.47 C 987.82 669.91 1016.55 663.05 1032.17 678.38 Q 1033.94 680.12 1031.48 679.82 Q 1029.63 679.60 1026.89 678.52 A 0.82 0.82 0.0 0 0 1025.81 679.52 L 1029.94 693.27 Q 1030.14 693.92 1030.72 693.58 Q 1031.24 693.28 1031.49 692.78"/>
    <path stroke="#8889a0" vector-effect="non-scaling-stroke" d=" M 1031.49 692.78 Q 1038.37 685.84 1041.83 676.92 A 2.04 2.04 0.0 0 0 1041.63 675.06 C 1028.90 655.93 1011.17 640.88 998.81 621.67 C 987.84 604.64 985.24 583.47 973.60 566.46 C 971.73 563.71 966.20 564.40 963.30 564.53"/>
    <path stroke="#153c79" vector-effect="non-scaling-stroke" d=" M 963.30 564.53 C 949.73 566.27 941.75 577.66 937.69 589.03 Q 935.82 594.28 936.46 588.75 C 937.72 577.74 942.76 566.13 953.28 561.09 Q 955.31 560.12 957.22 559.03"/>
    <path stroke="#8889a0" vector-effect="non-scaling-stroke" d=" M 957.22 559.03 L 961.92 558.41 Q 963.42 558.21 962.11 557.46 C 946.84 548.69 929.79 544.39 913.21 538.78 Q 903.03 535.34 893.92 529.55 A 0.25 0.25 0.0 0 0 893.54 529.73 L 892.25 538.80"/>
    <path stroke="#8cb3d8" vector-effect="non-scaling-stroke" d=" M 957.22 559.03 C 938.94 549.99 920.01 546.68 900.98 542.01 Q 897.91 541.26 892.25 538.80"/>
    <path stroke="#8cb3d8" vector-effect="non-scaling-stroke" d=" M 963.30 564.53 Q 972.15 575.88 977.29 588.75"/>
    <path stroke="#4689c8" vector-effect="non-scaling-stroke" d=" M 977.29 588.75 Q 966.93 587.88 964.29 595.88 C 962.79 600.41 963.37 608.64 964.52 613.51 C 967.65 626.81 971.66 640.49 972.32 653.85 C 972.54 658.48 981.26 660.41 984.99 660.59 Q 1002.49 661.47 1014.85 650.53"/>
    <path stroke="#8cb3d8" vector-effect="non-scaling-stroke" d=" M 1014.85 650.53 Q 1025.90 661.98 1035.96 675.81 C 1038.65 679.51 1033.11 689.16 1031.18 692.01 Q 1030.77 692.62 1031.49 692.78"/>
    <path stroke="#8cb3d8" vector-effect="non-scaling-stroke" d=" M 582.40 693.66 Q 577.26 686.24 575.68 678.61 A 2.65 2.65 0.0 0 1 576.13 676.51 Q 585.72 663.29 597.73 650.35"/>
    <path stroke="#4689c8" vector-effect="non-scaling-stroke" d=" M 597.73 650.35 Q 600.72 653.58 602.80 654.72 Q 616.46 662.27 632.01 659.74 C 634.86 659.27 640.24 657.33 640.42 653.96 Q 640.92 644.41 642.25 638.81 Q 645.41 625.44 648.27 612.01 C 650.51 601.54 650.36 587.74 635.32 588.47"/>
    <path stroke="#8cb3d8" vector-effect="non-scaling-stroke" d=" M 635.32 588.47 C 638.53 580.94 642.79 572.25 647.99 566.29 Q 648.74 565.42 649.00 564.53"/>
    <path stroke="#bad6ef" vector-effect="non-scaling-stroke" d=" M 1014.85 650.53 C 1003.38 637.26 992.89 625.33 985.86 608.97 Q 981.54 598.91 977.29 588.75"/>
    <path stroke="#8cb3d8" vector-effect="non-scaling-stroke" d=" M 720.81 538.82 Q 704.32 544.20 687.50 547.76 Q 670.89 551.27 655.22 558.82"/>
    <path stroke="#bad6ef" vector-effect="non-scaling-stroke" d=" M 635.32 588.47 Q 630.88 599.45 625.87 610.93 Q 621.94 619.93 616.95 626.96 Q 608.47 638.90 597.73 650.35"/>
    <path stroke="#8889a0" vector-effect="non-scaling-stroke" d=" M 713.02 651.40 Q 690.66 656.99 684.15 659.11 C 675.88 661.80 671.07 681.64 667.97 689.73 C 665.62 695.84 659.53 705.59 652.25 706.46 C 644.79 707.36 636.95 705.93 629.26 706.31 Q 619.67 706.79 611.29 711.74"/>
    <path stroke="#393f5b" vector-effect="non-scaling-stroke" d=" M 611.29 711.74 Q 602.13 716.77 597.21 725.97 Q 596.99 726.39 596.55 726.20 L 596.27 726.08 Q 596.09 726.01 596.16 725.82 C 602.60 706.88 619.52 699.63 638.25 700.29 A 0.67 0.67 0.0 0 0 638.92 699.75 L 640.56 690.99 A 1.92 1.91 -66.1 0 0 639.83 689.09 Q 621.46 675.24 598.00 676.66 C 593.80 676.91 591.60 681.39 591.45 684.94"/>
    <path stroke="#646b86" vector-effect="non-scaling-stroke" d=" M 591.45 684.94 C 584.87 705.74 579.87 727.73 578.82 749.49 C 578.50 756.00 582.90 760.37 588.93 761.88 Q 589.33 761.98 589.32 761.57 L 589.07 755.29 A 0.53 0.53 0.0 0 1 590.11 755.13 Q 590.89 757.89 594.36 761.93"/>
    <path stroke="#393f5b" vector-effect="non-scaling-stroke" d=" M 594.36 761.93 Q 606.35 767.71 620.93 761.86 Q 636.15 755.77 648.65 745.26 A 0.37 0.37 0.0 0 0 648.65 744.70 Q 641.49 738.34 638.91 729.00 Q 638.69 728.20 639.56 728.37 A 0.51 0.47 -10.8 0 1 639.82 728.53 C 651.45 742.90 668.44 749.93 686.30 752.19 A 0.32 0.31 78.8 0 0 686.61 751.72 Q 681.16 742.01 686.49 732.24 A 0.60 0.59 -61.7 0 0 686.25 731.43 C 672.65 724.21 671.50 705.79 684.77 697.64 C 688.33 695.46 693.43 694.48 697.76 693.27 Q 698.41 693.09 697.97 692.58 L 685.84 678.43 Q 684.65 677.04 686.44 677.43 Q 691.17 678.47 695.37 681.80 C 698.02 683.91 700.11 682.07 701.18 679.39 C 707.12 664.61 722.43 658.55 736.86 656.00 A 0.31 0.30 -21.0 0 0 737.07 655.54 Q 732.92 648.57 724.75 648.44 Q 721.97 648.40 713.02 651.40"/>
    <path stroke="#8c98a1" vector-effect="non-scaling-stroke" d=" M 594.36 761.93 Q 593.85 758.46 591.85 755.54 A 1.16 1.16 0.0 0 1 592.89 753.73 C 603.45 754.48 628.40 749.92 627.80 734.85 C 627.36 723.59 612.56 722.52 604.75 724.72 Q 599.18 726.30 596.09 727.67 Q 595.53 727.92 595.51 727.31 Q 595.50 727.16 595.51 726.99 A 1.74 1.71 35.1 0 0 595.37 726.22 Q 589.11 711.64 590.44 697.50 Q 591.34 687.92 591.45 684.94"/>
    <path stroke="#b0b5ba" vector-effect="non-scaling-stroke" d=" M 611.29 711.74 Q 621.62 709.32 627.50 709.79 C 635.75 710.46 644.43 711.68 652.64 710.09 C 669.42 706.84 672.69 688.07 677.35 674.78 C 682.34 660.56 689.53 659.32 703.49 656.43 Q 709.07 655.28 713.02 651.40"/>
    <path stroke="#646b86" vector-effect="non-scaling-stroke" d=" M 1018.70 761.59 L 1022.33 755.33 Q 1023.12 753.97 1023.32 755.53 Q 1023.69 758.42 1023.23 761.28 A 0.43 0.43 0.0 0 0 1023.74 761.77 C 1029.97 760.45 1033.72 756.07 1033.56 749.63 C 1033.00 728.16 1027.75 706.08 1021.27 685.56"/>
    <path stroke="#393f5b" vector-effect="non-scaling-stroke" d=" M 1021.27 685.56 C 1020.95 680.90 1018.72 676.86 1013.50 676.61 Q 991.37 675.55 972.43 689.08 Q 971.71 689.60 971.87 690.47 L 973.57 699.77 A 0.74 0.74 0.0 0 0 974.33 700.37 C 984.89 699.79 996.32 702.37 1004.67 708.63 Q 1011.64 713.84 1014.58 721.36 Q 1017.29 728.25 1013.27 722.03 Q 1009.64 716.43 1001.69 712.22"/>
    <path stroke="#8889a0" vector-effect="non-scaling-stroke" d=" M 1001.69 712.22 C 989.72 703.65 975.92 707.09 962.49 706.71 C 949.12 706.32 943.63 687.73 940.27 677.75 C 937.66 670.02 934.73 660.57 926.28 658.33 Q 911.88 654.50 897.08 650.72"/>
    <path stroke="#393f5b" vector-effect="non-scaling-stroke" d=" M 897.08 650.72 C 888.51 648.32 881.05 646.39 875.58 655.33 A 0.62 0.62 0.0 0 0 876.03 656.27 C 891.42 658.36 908.63 663.78 912.08 681.26 Q 912.20 681.87 912.79 682.04 L 915.20 682.72 A 1.25 1.23 33.6 0 0 916.32 682.50 Q 920.19 679.36 924.89 677.64 Q 928.49 676.32 925.99 679.23 L 914.66 692.46 A 0.52 0.52 0.0 0 0 914.91 693.30 C 918.77 694.48 923.45 695.37 926.62 697.00 C 941.16 704.47 940.09 723.05 926.77 731.25 Q 925.87 731.80 926.34 732.75 Q 930.94 742.03 926.25 751.29 Q 925.79 752.21 926.81 752.08 C 944.87 749.70 960.41 742.78 972.57 728.97 Q 974.17 727.16 973.50 729.48 Q 970.99 738.36 964.13 744.45 A 0.64 0.64 0.0 0 0 964.14 745.42 Q 977.94 756.87 993.75 762.71 Q 1007.30 767.71 1018.70 761.59"/>
    <path stroke="#b0b5ba" vector-effect="non-scaling-stroke" d=" M 897.08 650.72 C 907.30 661.01 922.50 654.11 930.51 668.17 C 940.30 685.34 938.31 711.38 966.00 710.82 Q 972.64 710.68 979.25 710.10 Q 990.18 709.14 1001.69 712.22"/>
    <path stroke="#8c98a1" vector-effect="non-scaling-stroke" d=" M 1021.27 685.56 Q 1021.31 688.19 1022.15 698.00 Q 1023.33 711.78 1017.50 725.24 C 1017.11 726.15 1017.25 726.43 1017.21 727.38 Q 1017.18 728.00 1016.63 727.74 C 1008.72 724.01 996.85 721.40 989.32 726.80 Q 983.68 730.84 984.94 737.17 C 987.73 751.15 1008.95 753.87 1020.14 753.95 Q 1020.71 753.96 1020.70 754.53 Q 1020.65 756.07 1019.95 757.14 Q 1018.47 759.39 1018.70 761.59"/>
    <path stroke="#23243c" vector-effect="non-scaling-stroke" d=" M 708.19 689.72 Q 712.35 690.05 715.96 688.35 A 0.91 0.90 76.7 0 0 716.48 687.50 Q 716.18 681.03 719.52 675.24 C 721.46 671.88 722.79 672.32 725.72 670.86 Q 729.70 668.87 734.23 668.46 Q 734.70 668.41 735.11 668.17 C 737.30 666.83 738.89 668.35 740.78 668.24"/>
    <path stroke="#393f5b" vector-effect="non-scaling-stroke" d=" M 740.78 668.24 Q 741.59 668.32 742.34 668.79 Q 742.77 669.06 743.27 669.10 Q 753.59 670.00 763.45 673.20 C 765.41 673.84 765.85 674.49 765.92 676.52 Q 766.17 684.76 766.17 689.50 C 766.17 694.86 759.94 692.41 756.92 691.87"/>
    <path stroke="#23243c" vector-effect="non-scaling-stroke" d=" M 756.92 691.87 C 753.69 690.80 749.30 691.16 745.90 690.98 A 0.57 0.56 73.9 0 0 745.41 691.87 C 750.91 699.63 751.17 704.82 747.45 714.10 Q 747.25 714.60 747.73 714.86 C 760.73 721.95 762.32 740.45 749.35 748.33 C 744.01 751.58 734.03 753.31 726.91 755.18 A 0.43 0.43 0.0 0 0 726.70 755.89 Q 728.33 757.64 730.72 758.64 C 741.26 763.07 757.41 765.46 766.89 757.34 Q 769.83 754.82 770.52 752.51 Q 772.73 745.06 775.63 729.23 Q 775.73 728.69 775.77 727.91"/>
    <path stroke="#393f5b" vector-effect="non-scaling-stroke" d=" M 775.77 727.91 L 782.27 703.00 Q 782.41 702.46 781.87 702.35 C 773.82 700.57 765.85 698.66 757.54 699.64"/>
    <path stroke="#23243c" vector-effect="non-scaling-stroke" d=" M 757.54 699.64 Q 754.31 699.73 753.06 700.01 Q 747.15 701.28 752.70 698.68 L 758.09 696.16"/>
    <path stroke="#393f5b" vector-effect="non-scaling-stroke" d=" M 758.09 696.16 C 767.02 693.89 774.95 695.33 783.69 697.28 A 1.49 1.48 -71.0 0 0 785.36 696.46 Q 789.69 687.26 799.38 683.57 C 803.14 682.15 809.14 681.55 811.99 685.25 Q 812.60 686.03 812.16 686.64 Q 811.88 687.02 811.92 687.49 C 812.51 693.89 808.12 694.36 803.04 694.84 Q 799.52 695.16 795.86 698.98 Q 795.49 699.37 795.98 699.59 Q 797.75 700.38 799.76 700.46 Q 811.16 700.89 822.20 698.29 C 830.62 696.30 839.96 694.03 848.64 695.08 C 851.51 695.43 854.84 696.55 857.93 697.25"/>
    <path stroke="#23243c" vector-effect="non-scaling-stroke" d=" M 857.93 697.25 Q 860.18 698.03 860.73 698.74 Q 862.17 700.58 859.76 700.28 L 857.44 699.99"/>
    <path stroke="#393f5b" vector-effect="non-scaling-stroke" d=" M 857.44 699.99 C 849.11 698.05 838.93 700.22 830.82 702.47 C 818.14 705.99 806.15 708.68 793.11 705.17 A 1.52 1.52 0.0 0 0 791.29 706.11 Q 787.21 717.12 785.75 727.86"/>
    <path stroke="#23243c" vector-effect="non-scaling-stroke" d=" M 785.75 727.86 L 782.59 745.99 A 0.89 0.89 0.0 0 0 783.47 747.03 L 835.22 747.00 A 2.19 2.16 78.1 0 1 837.23 748.33 C 841.46 758.31 849.98 762.41 860.51 762.16 C 866.14 762.03 880.22 760.68 883.76 755.63 A 0.56 0.55 25.7 0 0 883.46 754.78 C 872.63 751.55 858.46 750.63 854.97 737.75 C 852.35 728.10 856.33 719.92 864.67 714.85 Q 865.12 714.58 864.94 714.09 C 861.94 706.20 861.18 699.69 866.68 692.77 A 0.92 0.91 26.6 0 0 866.19 691.32 Q 862.42 690.34 859.26 691.16"/>
    <path stroke="#393f5b" vector-effect="non-scaling-stroke" d=" M 859.26 691.16 L 847.45 692.99 A 2.89 2.88 -5.1 0 1 844.12 690.21 Q 843.99 685.13 844.03 679.88 C 844.06 675.52 843.49 673.85 848.01 672.68 Q 860.61 669.41 868.29 668.98"/>
    <path stroke="#23243c" vector-effect="non-scaling-stroke" d=" M 868.29 668.98 L 876.39 668.34 Q 876.85 668.31 877.12 668.68 Q 877.26 668.88 877.43 669.07 Q 877.71 669.41 878.17 669.55 C 881.29 670.53 885.18 671.37 887.65 673.06 C 891.76 675.85 893.80 681.31 893.50 686.37 Q 893.44 687.40 894.40 687.76 Q 900.55 690.04 905.65 690.08"/>
    <path stroke="#8889a0" vector-effect="non-scaling-stroke" d=" M 905.65 690.08 Q 905.75 690.51 906.00 690.56 Q 906.44 690.64 906.45 690.19 C 906.65 680.76 904.74 673.00 895.79 668.48 Q 877.19 659.08 856.81 664.00 Q 844.02 667.09 831.61 671.50 C 816.95 676.71 804.51 678.83 789.46 674.88 Q 777.44 671.72 765.67 667.69 Q 753.41 663.49 746.51 662.56 C 737.49 661.35 731.23 662.94 722.59 666.34 C 713.84 669.77 704.37 679.38 706.00 689.97 Q 706.08 690.48 706.57 690.63 Q 708.05 691.09 708.19 689.72"/>
    <path stroke="#9a9a9b" vector-effect="non-scaling-stroke" d=" M 905.65 690.08 Q 905.81 689.40 905.55 688.49 C 900.58 671.09 884.19 666.04 867.25 666.74"/>
    <path stroke="#b0b5ba" vector-effect="non-scaling-stroke" d=" M 867.25 666.74 C 849.36 668.04 832.79 677.16 815.34 681.13 C 812.59 681.75 809.77 681.67 806.91 681.95 Q 803.21 682.31 800.58 681.98 C 788.71 680.45 778.04 676.06 766.91 671.99 Q 753.92 667.23 740.25 667.16"/>
    <path stroke="#9a9a9b" vector-effect="non-scaling-stroke" d=" M 740.25 667.16 C 733.25 667.41 727.98 667.40 721.66 670.75 C 714.59 674.50 710.24 682.08 708.19 689.72"/>
    <path stroke="#4b5056" vector-effect="non-scaling-stroke" d=" M 867.25 666.74 Q 866.91 667.30 867.00 667.65 Q 867.07 667.89 867.65 668.10 Q 868.57 668.42 868.29 668.98"/>
    <path stroke="#4b5056" vector-effect="non-scaling-stroke" d=" M 859.26 691.16 L 857.93 697.25"/>
    <path stroke="#4b5056" vector-effect="non-scaling-stroke" d=" M 758.09 696.16 Q 756.93 694.57 756.92 691.87"/>
    <path stroke="#4b5056" vector-effect="non-scaling-stroke" d=" M 740.78 668.24 Q 739.87 667.75 740.25 667.16"/>
    <path stroke="#4b5056" vector-effect="non-scaling-stroke" d=" M 757.54 699.64 Q 757.95 703.65 756.63 706.88 A 1.49 1.48 24.1 0 0 757.36 708.78 Q 764.01 712.00 766.48 718.67 C 767.41 721.22 767.02 724.38 767.05 727.22 Q 767.05 727.74 767.57 727.75 L 775.77 727.91"/>
    <path stroke="#4b5056" vector-effect="non-scaling-stroke" d=" M 785.75 727.86 Q 808.16 727.54 830.75 727.82 C 833.14 727.85 834.67 724.35 835.84 722.61 Q 843.24 711.63 856.99 710.35 A 0.64 0.63 -7.6 0 0 857.56 709.62 Q 856.79 705.00 857.44 699.99"/>
    <path stroke="#393f5b" vector-effect="non-scaling-stroke" d=" M 742.50 688.32 C 749.31 687.61 755.82 688.23 762.43 689.96 A 0.44 0.44 0.0 0 0 762.98 689.55 Q 763.13 683.89 763.30 678.25 Q 763.36 676.35 761.25 675.76 C 748.30 672.12 737.39 670.48 724.90 674.93 C 720.45 676.52 719.13 682.89 719.57 686.98 Q 719.63 687.50 720.13 687.35 C 727.51 685.12 732.68 684.00 739.91 687.62 Q 741.51 688.43 742.50 688.32"/>
    <path stroke="#393f5b" vector-effect="non-scaling-stroke" d=" M 884.29 674.68 C 872.35 670.43 859.80 672.28 848.08 675.88 A 1.44 1.43 -8.3 0 0 847.06 677.24 L 847.03 689.46 A 0.48 0.48 0.0 0 0 847.64 689.92 Q 858.58 686.97 869.79 688.69 Q 870.29 688.76 870.75 688.54 C 878.32 684.79 881.59 684.70 890.19 686.58 Q 890.69 686.69 890.70 686.18 C 890.76 681.64 888.96 676.34 884.29 674.68"/>
    <path stroke="#393f5b" vector-effect="non-scaling-stroke" d=" M 687.61 725.30 Q 692.73 728.22 698.76 726.56 Q 716.49 721.70 734.21 716.80 Q 740.06 715.18 742.34 710.54 Q 746.39 702.26 740.32 695.43"/>
    <path stroke="#8889a0" vector-effect="non-scaling-stroke" d=" M 740.32 695.43 Q 734.70 689.67 727.38 691.63 Q 711.69 695.83 696.02 700.07 C 692.92 700.91 689.53 701.56 687.02 703.28 C 679.17 708.64 679.71 719.61 687.61 725.30"/>
    <path stroke="#b0b5ba" vector-effect="non-scaling-stroke" d=" M 740.32 695.43 Q 734.33 694.08 732.59 694.54 Q 715.19 699.17 697.80 703.87 C 692.36 705.35 688.46 707.11 686.32 712.05 Q 683.76 717.95 687.61 725.30"/>
    <path stroke="#393f5b" vector-effect="non-scaling-stroke" d=" M 930.6379 717.0142 A 12.61 12.61 0.0 0 0 921.7483 701.5546 L 884.8865 691.6086 A 12.61 12.61 0.0 0 0 869.4270 700.4982 L 869.1821 701.4058 A 12.61 12.61 0.0 0 0 878.0717 716.8654 L 914.9335 726.8114 A 12.61 12.61 0.0 0 0 930.3930 717.9218 L 930.6379 717.0142"/>
    <path stroke="#8889a0" vector-effect="non-scaling-stroke" d=" M 696.04 733.19 L 693.52 733.21 Q 693.02 733.22 692.72 733.61 C 685.25 743.57 693.75 757.21 706.12 754.53"/>
    <path stroke="#393f5b" vector-effect="non-scaling-stroke" d=" M 706.12 754.53 Q 724.16 749.73 742.96 744.37 C 755.26 740.86 755.42 723.69 743.38 719.55 A 1.12 1.12 0.0 0 0 742.42 719.67 Q 738.72 722.02 734.49 723.17 Q 718.25 727.59 701.96 731.82 Q 698.69 732.67 696.04 733.19"/>
    <path stroke="#b0b5ba" vector-effect="non-scaling-stroke" d=" M 706.12 754.53 Q 697.88 752.96 694.92 747.26 Q 691.45 740.58 696.04 733.19"/>
    <path stroke="#393f5b" vector-effect="non-scaling-stroke" d=" M 861.48 726.71 C 858.18 734.34 862.01 742.51 870.01 744.72 Q 887.23 749.47 904.51 754.02 C 910.85 755.69 916.38 754.69 920.28 749.21 Q 924.79 742.88 920.73 734.88 A 2.91 2.91 0.0 0 0 918.38 733.29 C 916.55 733.12 914.68 733.02 912.84 732.53 Q 895.13 727.80 877.43 723.02 C 875.07 722.38 873.07 721.35 870.96 720.24 C 867.22 718.27 862.74 723.81 861.48 726.71"/>
    <path stroke="#565c79" vector-effect="non-scaling-stroke" d=" M 737.17 253.72 L 735.07 254.45 Q 734.05 254.80 735.13 254.89 C 754.86 256.59 771.25 267.90 790.51 273.26 C 811.61 279.14 827.97 267.95 846.76 260.07 Q 855.34 256.47 868.08 254.18"/>
    <path stroke="#7e8994" vector-effect="non-scaling-stroke" d=" M 868.08 254.18 Q 850.12 246.76 833.24 250.82 C 820.72 253.83 808.69 258.48 795.22 256.65 C 785.89 255.38 776.78 250.54 768.12 249.26 Q 752.36 246.92 737.17 253.72"/>
    <path stroke="#393f5b" vector-effect="non-scaling-stroke" d=" M 868.08 254.18 Q 861.09 253.81 859.25 253.84 C 846.62 254.05 833.58 258.46 820.98 261.91 C 809.26 265.12 798.08 266.03 786.25 262.93 Q 782.18 261.86 768.51 257.55 Q 757.71 254.14 743.94 254.27 C 741.74 254.29 739.48 253.85 737.17 253.72"/>
    <path stroke="#a9b5bf" vector-effect="non-scaling-stroke" d=" M 867.19 278.18 C 861.88 277.42 857.26 277.24 851.97 278.63 C 841.23 281.44 832.08 288.10 822.88 293.62 C 815.70 297.93 808.71 301.49 800.36 301.28 C 785.67 300.93 774.99 287.70 762.33 282.18 Q 749.67 276.65 735.77 279.30 Q 734.23 279.59 735.77 279.85 C 744.10 281.28 752.02 286.39 758.18 291.57 C 767.02 299.00 779.53 311.28 792.45 319.29 C 804.29 326.63 815.48 322.65 824.76 313.78 Q 833.11 305.79 842.78 295.54 C 849.09 288.86 856.99 281.08 866.51 279.72 Q 867.57 279.57 867.72 278.98 Q 867.90 278.29 867.19 278.18"/>
    <path stroke="#565c79" vector-effect="non-scaling-stroke" d=" M 811.46 469.57 C 825.82 476.97 842.65 478.16 849.81 461.32 Q 850.35 460.06 849.33 460.97 C 836.57 472.39 822.33 470.10 808.36 461.82 A 1.53 1.52 -45.2 0 0 806.80 461.83 C 793.41 470.09 778.43 472.12 766.33 461.01 Q 765.20 459.98 765.62 461.45 C 771.08 480.30 793.23 473.60 805.85 468.66 C 808.23 467.73 809.40 468.52 811.46 469.57"/>
    <path stroke="#565c79" vector-effect="non-scaling-stroke" d=" M 795.13 480.98 Q 809.42 486.12 823.15 479.88 Q 824.75 479.16 823.01 478.91 C 818.49 478.28 813.63 476.71 809.26 476.44 C 803.55 476.09 797.80 478.23 792.23 478.87 Q 791.06 479.01 792.07 479.61 Q 793.29 480.32 795.13 480.98"/>
    <path stroke="#8889a0" vector-effect="non-scaling-stroke" d=" M 777.30 386.01 C 778.51 373.29 765.81 360.99 754.74 357.12 Q 753.91 356.83 754.57 357.41 C 755.69 358.41 757.04 359.27 757.93 360.32 C 763.76 367.24 766.52 376.28 770.06 384.47 Q 771.25 387.21 773.60 389.26 A 1.85 1.85 0.0 0 0 776.21 389.09 Q 777.10 388.07 777.30 386.01"/>
    <path stroke="#8889a0" vector-effect="non-scaling-stroke" d=" M 712.16 380.72 Q 711.87 382.34 711.08 380.90 C 707.80 374.88 705.33 368.72 703.57 362.35 Q 703.10 360.63 702.85 362.40 C 699.87 384.31 717.17 403.58 737.42 409.10 Q 756.67 414.34 773.47 404.78 Q 774.71 404.08 773.31 404.31 C 757.74 406.80 740.61 405.48 726.60 397.38 A 0.30 0.29 -37.8 0 1 726.67 396.84 C 739.81 393.19 728.51 373.00 717.01 375.41 Q 712.95 376.26 712.16 380.72"/>
    <path stroke="#8889a0" vector-effect="non-scaling-stroke" d=" M 849.46 368.77 A 0.59 0.59 0.0 0 1 848.99 367.77 Q 857.02 359.87 866.46 353.76 Q 868.63 352.35 866.10 352.88 C 848.06 356.60 829.99 375.05 833.98 394.75 A 0.22 0.22 0.0 0 0 834.41 394.78 L 839.88 380.33 Q 840.16 379.58 840.76 380.12 C 844.85 383.80 850.98 379.70 852.99 375.87 C 854.65 372.72 854.04 368.34 849.46 368.77"/>
    <path stroke="#8889a0" vector-effect="non-scaling-stroke" d=" M 872.65 403.56 C 863.84 407.01 855.72 407.62 846.35 407.49 Q 845.07 407.47 846.24 407.99 C 872.04 419.53 909.63 396.28 905.24 366.81 Q 904.89 364.46 904.21 366.74 C 899.43 382.72 888.76 397.26 872.65 403.56"/>
    <path stroke="#7e8994" vector-effect="non-scaling-stroke" d=" M 769.79 523.00 Q 769.01 522.72 769.21 523.52 C 771.41 532.00 779.56 538.10 787.53 540.66 Q 807.56 547.08 827.33 539.93 Q 840.13 535.30 846.46 524.69 Q 847.59 522.79 845.50 523.52 Q 807.56 536.76 769.79 523.00"/>
    <path stroke="#4689c8" vector-effect="non-scaling-stroke" d=" M 715.58 594.86 Q 723.62 609.60 724.71 626.34 A 0.63 0.63 0.0 0 0 725.36 626.93 C 736.71 626.61 751.48 629.38 755.69 641.72 A 1.13 1.13 0.0 0 0 756.76 642.49 L 860.07 642.50 A 2.49 2.48 -73.1 0 0 862.14 641.39 C 868.39 632.02 876.82 629.58 887.65 628.27 A 1.79 1.78 3.3 0 0 889.17 626.92 Q 893.92 607.06 906.90 591.38 Q 908.02 590.03 906.32 590.41 C 842.72 604.52 777.89 603.80 713.97 590.20 A 0.47 0.47 0.0 0 0 713.45 590.88 Q 714.53 592.94 715.58 594.86"/>
  </g>
  <path d="M 0 0 L 1633.995 0 L 1633.995 970.392 L 0 970.392 L 0 0 Z M 681.974 275.908 C 680.539 276.819 679.074 277.727 677.58 278.631 C 562.712 348.024 526.346 494.742 594.724 609.535 C 597.009 613.377 599.208 616.668 601.32 619.407 C 599.215 622.226 597.584 624.312 596.428 625.665 C 586.355 637.488 573.303 650.995 563.659 665.422 C 558.627 672.977 572.416 688.483 577.856 692.82 C 578.36 693.223 578.575 693.884 578.404 694.504 C 574.127 709.792 571.603 725.259 570.832 740.904 C 570.464 748.222 572.626 753.549 578.893 757.54 C 583.785 760.649 589.155 760.837 594.525 762.025 C 597.693 762.725 599.945 763.111 601.28 763.184 C 619.234 764.174 638.085 752.569 651.257 741.489 C 651.509 741.277 651.781 741.244 652.074 741.39 C 663.684 747.093 675.943 750.394 688.848 751.291 C 690.263 751.391 691.964 751.754 693.95 752.381 C 701.831 754.886 708.536 751.985 716.128 750.014 C 716.646 749.882 717.065 750.031 717.384 750.46 C 719.008 752.648 721.06 754.292 723.641 755.539 C 735.348 761.154 751.05 763.441 763.195 757.649 C 763.401 757.546 763.641 757.703 763.628 757.932 C 763.626 757.957 763.621 757.981 763.614 758.005 C 759.675 770.019 753.498 780.763 745.082 790.236 C 743.906 791.556 743.81 792.86 744.793 794.147 C 748.469 798.93 752.963 796.87 756.54 793.206 C 768.645 780.809 775.012 763.164 778.001 746.608 C 778.078 746.191 778.446 745.887 778.878 745.885 L 829.173 745.875 C 829.43 745.874 829.667 746.011 829.79 746.232 C 839.654 763.6 863.407 762.897 879.448 756.312 C 882.846 754.916 884.908 752.559 887.229 749.856 C 887.534 749.505 888.018 749.358 888.475 749.479 C 895.061 751.242 904.356 754.856 910.912 752.896 C 914.293 751.879 917.203 751.278 919.64 751.093 C 932.324 750.143 943.084 746.539 954.592 741.399 C 954.904 741.254 955.193 741.294 955.459 741.518 C 968.64 752.658 986.903 763.728 1004.578 763.204 C 1008.992 763.075 1014.213 761.491 1019.254 760.728 C 1028.112 759.391 1035.764 753.094 1035.774 743.637 C 1035.783 727.101 1032.506 710.04 1028.201 694.108 C 1028.115 693.791 1028.191 693.517 1028.43 693.286 C 1029.38 692.348 1030.347 691.424 1031.33 690.513 C 1037.235 685.028 1041.439 678.453 1043.943 670.789 C 1044.501 669.072 1044.402 667.6 1043.645 666.372 C 1033.004 649.192 1018.696 636.963 1005.276 619.318 C 1082.183 505.347 1047.092 350.47 929.723 279.107 C 928.913 278.618 928.039 278.288 927.103 278.116 C 926.877 277.866 926.708 277.41 926.595 276.75 C 922.42 252.074 910.594 228.201 892.092 211.11 C 867.801 188.662 837.582 177.562 804.543 175.75 C 802.71 175.644 800.883 175.697 799.063 175.908 C 766.613 179.602 736.623 192.96 713.817 216.368 C 709.582 220.715 705.258 226.091 701.133 231.102 C 697.334 235.716 694.528 239.67 692.714 242.964 C 687.095 253.163 684.016 264.729 681.974 275.908 Z" style="fill: rgba(186, 218, 85, 0);"/>
  <path fill="#111240" d=" M 930.51 280.87 Q 930.14 280.99 930.19 281.50 Q 932.52 302.29 928.13 322.20 C 927.31 325.91 926.43 328.21 927.20 331.95 Q 930.89 349.93 929.75 364.75 C 927.37 395.52 909.65 423.31 890.54 446.74 Q 888.74 448.95 887.70 451.70 C 882.73 464.89 875.75 478.92 866.17 489.59 C 863.13 492.99 862.47 497.29 862.16 501.59 A 0.58 0.58 0.0 0 0 862.75 502.21 C 872.63 502.15 883.09 505.77 888.96 514.09 C 890.44 516.19 891.95 520.62 894.46 522.59 C 904.42 530.42 918.11 534.63 932.86 538.99 C 947.14 543.23 960.58 548.38 972.54 557.44 C 979.98 563.08 984.61 571.89 987.84 580.45 C 993.72 596.02 998.12 611.73 1008.97 625.45 C 1022.44 643.27 1036.80 655.62 1047.48 672.97 Q 1048.62 674.83 1047.78 677.43 Q 1044.01 689.04 1035.12 697.35 Q 1033.64 698.73 1032.21 700.15 Q 1031.85 700.50 1031.98 700.98 C 1036.30 717.07 1039.59 734.30 1039.58 751.00 C 1039.57 760.55 1031.89 766.91 1023.00 768.26 C 1017.94 769.03 1012.70 770.63 1008.27 770.76 C 990.53 771.29 972.20 760.11 958.97 748.86 Q 958.57 748.52 958.10 748.74 C 946.55 753.93 935.75 757.57 923.02 758.53 Q 919.35 758.81 914.26 760.35 C 907.68 762.33 898.35 758.68 891.74 756.90 A 1.24 1.22 27.7 0 0 890.49 757.28 C 888.16 760.01 886.09 762.39 882.68 763.80 C 866.58 770.45 842.74 771.16 832.84 753.62 A 0.71 0.70 -14.2 0 0 832.22 753.26 L 781.74 753.27 A 0.90 0.89 5.0 0 0 780.86 754.00 C 777.86 770.72 771.47 788.54 759.32 801.06 C 755.73 804.76 751.22 806.84 747.53 802.01 Q 746.05 800.06 747.82 798.06 Q 760.49 783.71 766.42 765.51 A 0.30 0.30 0.0 0 0 766.00 765.15 C 753.81 771.00 738.05 768.69 726.30 763.02 C 723.71 761.76 721.65 760.10 720.02 757.89 Q 719.54 757.24 718.76 757.44 C 711.14 759.43 704.41 762.36 696.50 759.83 Q 693.51 758.88 691.38 758.73 Q 671.95 757.37 654.47 748.73 Q 654.03 748.51 653.65 748.83 C 640.43 760.02 621.51 771.74 603.49 770.74 Q 601.48 770.63 596.71 769.57 C 591.32 768.37 585.93 768.18 581.02 765.04 C 574.73 761.01 572.56 755.63 572.93 748.24 Q 574.09 724.54 580.53 701.38 A 1.63 1.63 0.0 0 0 579.98 699.68 C 574.52 695.30 560.68 679.64 565.73 672.01 C 575.41 657.44 588.51 643.80 598.62 631.86 Q 600.36 629.81 603.53 625.54 Q 612.25 614.44 616.94 601.47 C 622.45 586.25 626.97 571.24 637.61 558.60 C 646.97 547.48 661.39 542.34 675.00 538.72 C 689.89 534.75 704.76 530.31 718.38 522.93 A 2.90 2.89 -3.3 0 0 719.70 521.45 Q 720.43 519.58 721.49 517.27 C 727.30 504.60 739.60 500.65 752.65 501.42 A 0.58 0.57 -88.6 0 0 753.26 500.83 L 753.08 491.59 Q 753.08 491.16 752.78 490.86 Q 734.49 472.75 724.31 449.07 Q 723.94 448.20 723.19 447.56 Q 705.54 432.53 696.56 411.11 C 689.28 393.76 684.17 372.53 682.55 355.00 Q 681.23 340.82 681.33 318.50 Q 681.41 298.32 684.48 278.64 C 686.53 267.35 689.62 255.67 695.26 245.37 Q 697.99 240.38 703.71 233.39 C 707.85 228.33 712.19 222.90 716.44 218.51 C 739.33 194.87 769.43 181.38 802.00 177.65 Q 804.74 177.33 807.50 177.49 C 840.66 179.32 870.99 190.53 895.37 213.20 C 913.94 230.46 925.81 254.57 930.00 279.49 Q 930.17 280.49 930.51 280.87 Z M 747.12 202.06 C 730.65 211.60 719.26 223.62 707.54 238.22 C 700.41 247.09 696.16 255.31 693.44 265.75 Q 688.70 283.97 687.74 303.49 C 685.94 340.45 688.23 379.39 704.26 413.48 C 712.21 430.37 729.29 444.60 743.44 456.22 Q 744.03 456.70 743.27 456.67 C 740.11 456.54 737.14 455.40 734.31 454.31 Q 733.12 453.85 733.71 454.98 Q 737.85 462.90 742.32 470.95 Q 749.09 483.14 761.47 490.44 Q 765.45 494.30 770.82 498.17 C 786.01 509.09 804.62 516.04 823.18 509.41 Q 834.61 505.33 845.91 497.37 C 863.53 488.47 872.43 473.00 879.57 455.98 A 0.22 0.21 -83.1 0 0 879.34 455.68 L 870.36 457.23 A 0.79 0.79 0.0 0 1 869.92 455.73 Q 872.16 454.79 873.39 452.71 Q 885.77 442.18 899.03 424.77 C 917.28 400.81 927.19 372.11 922.70 341.89 C 920.99 330.42 916.89 321.43 909.66 312.78 L 904.63 306.47 L 898.28 299.12 A 0.50 0.47 27.3 0 1 898.16 298.78 Q 898.17 298.13 898.74 298.28 Q 901.61 299.04 905.38 300.47 Q 911.83 303.77 917.10 308.49 Q 920.62 312.47 922.55 316.95 A 0.23 0.23 0.0 0 0 922.98 316.90 Q 927.84 291.51 921.02 266.74 Q 914.11 241.68 894.86 221.09 Q 882.09 207.98 865.85 199.49 C 849.03 189.52 827.00 184.45 807.65 183.52 Q 805.65 183.43 803.00 183.72 Q 781.58 186.12 762.26 194.23 Q 754.08 197.66 747.12 202.06 Z M 869.63 532.35 C 855.78 527.74 855.14 509.25 858.30 497.74 Q 858.47 497.11 858.42 497.03 Q 857.88 496.09 857.02 496.76 C 843.60 507.33 826.24 517.81 808.67 518.19 C 791.34 518.57 772.55 508.46 760.01 497.28 A 0.48 0.47 -70.4 0 0 759.22 497.66 C 759.89 511.88 755.39 525.76 742.63 533.31 A 0.84 0.84 0.0 0 0 742.46 534.62 C 749.36 541.67 759.28 546.53 768.57 549.51 Q 802.06 560.26 836.45 552.52 C 849.65 549.55 861.83 543.92 869.95 533.38 A 0.66 0.66 0.0 0 0 869.63 532.35 Z M 748.02 508.71 Q 748.98 509.72 747.95 510.44 Q 740.54 515.64 738.69 523.48 Q 738.13 525.86 738.92 527.27 Q 739.55 528.41 740.62 527.66 Q 750.61 520.60 752.53 508.40 Q 752.62 507.88 752.12 507.68 Q 751.02 507.24 749.77 507.38 C 734.76 507.48 722.46 516.40 725.60 532.68 C 732.38 567.76 780.69 572.61 808.25 573.05 Q 822.83 573.28 843.25 569.10 C 863.65 564.91 887.46 553.47 887.60 529.06 C 887.68 514.62 875.10 508.53 862.28 508.15 Q 861.73 508.13 861.60 508.67 Q 861.48 509.20 861.69 509.72 Q 861.89 510.25 862.43 510.40 C 873.51 513.55 880.55 520.69 876.68 533.11 Q 875.78 535.99 873.39 538.83 C 865.43 548.26 853.64 554.47 842.02 557.51 C 809.83 565.91 767.64 563.17 740.55 541.22 Q 737.14 538.47 736.28 536.75 C 730.06 524.45 736.53 513.82 748.02 508.71 Z M 866.55 524.35 L 869.88 526.13 Q 872.50 527.54 871.98 524.61 C 871.07 519.42 867.59 515.11 863.58 511.51 Q 861.05 509.25 861.69 512.58 L 863.05 519.59 A 6.89 6.89 0.0 0 0 866.55 524.35 Z M 892.25 538.80 Q 890.44 546.45 886.47 551.72 C 875.93 565.77 858.85 572.06 841.74 575.47 Q 813.65 581.06 786.10 577.62 C 762.60 574.68 736.37 568.20 723.69 545.91 Q 722.93 544.57 722.22 542.38 Q 721.56 540.34 720.81 538.82 L 719.17 530.01 A 0.45 0.45 0.0 0 0 718.52 529.69 C 703.84 537.31 687.79 541.49 672.02 546.00 C 662.21 548.80 654.74 551.90 646.97 557.55 Q 646.54 557.87 647.07 557.93 L 655.22 558.82 Q 657.51 560.09 659.53 561.16 C 670.50 566.97 675.50 578.99 676.28 590.83 Q 676.29 590.92 676.35 591.15 Q 676.41 591.37 676.29 591.48 A 0.35 0.35 0.0 0 1 675.72 591.34 C 671.54 578.65 663.33 566.13 649.00 564.53 L 641.04 564.75 A 1.21 1.17 19.4 0 0 640.21 565.13 C 636.04 569.67 632.78 576.55 630.56 582.25 C 625.77 594.49 621.59 608.85 615.07 619.52 C 606.28 633.91 591.07 649.07 581.83 660.33 Q 575.76 667.73 570.68 675.59 A 1.00 0.97 52.4 0 0 570.58 676.45 Q 574.28 686.60 582.40 693.66 Q 582.54 692.83 582.79 692.45 Q 582.93 692.25 583.00 692.01 L 586.82 679.10 A 0.41 0.40 -86.3 0 0 586.37 678.58 Q 584.17 678.95 581.98 679.69 Q 577.20 681.32 580.79 677.77 C 586.97 671.63 596.64 669.50 605.63 669.71 Q 624.55 670.16 640.06 680.97 C 646.63 685.55 650.26 690.80 651.77 698.43 A 0.74 0.74 0.0 0 1 651.28 699.27 Q 650.78 699.44 650.37 698.86 Q 648.77 696.59 646.71 694.99 A 0.64 0.64 0.0 0 0 645.69 695.38 L 644.90 699.85 A 0.89 0.89 0.0 0 0 645.78 700.89 C 648.83 700.86 652.21 701.00 654.67 698.83 Q 659.89 694.21 662.22 687.47 C 670.89 662.34 677.09 634.90 678.10 608.26 Q 678.20 605.63 678.64 608.23 Q 682.58 631.59 677.86 654.79 Q 677.51 656.48 678.82 655.35 Q 680.83 653.59 684.00 652.75 Q 698.99 648.78 713.99 644.78 Q 723.51 642.24 727.70 642.70 Q 737.20 643.75 742.33 653.36 Q 742.99 654.60 743.78 655.83 A 1.07 1.06 -12.7 0 0 744.55 656.31 C 758.79 658.09 772.59 663.57 786.22 667.88 Q 804.86 673.78 823.46 667.88 C 838.24 663.20 852.21 657.19 868.37 656.09 Q 868.89 656.06 869.06 655.57 C 872.22 646.81 881.94 640.36 891.21 642.83 Q 909.53 647.72 927.84 652.63 C 930.22 653.27 932.05 654.12 933.97 655.43 A 0.40 0.39 11.6 0 0 934.58 655.03 Q 930.22 631.49 933.89 607.77 Q 934.37 604.63 934.57 607.80 C 934.96 614.18 935.23 621.13 936.08 627.37 Q 940.16 657.35 949.84 686.03 C 951.24 690.20 953.77 694.34 955.33 698.81 A 1.08 1.07 -5.0 0 0 956.18 699.52 L 966.58 701.09 A 1.02 1.02 0.0 0 0 967.74 699.88 L 966.82 695.24 A 0.67 0.67 0.0 0 0 965.67 694.92 L 962.12 698.83 A 0.72 0.72 0.0 0 1 961.68 699.05 Q 960.45 699.17 960.76 697.97 C 962.56 691.10 965.83 685.76 971.78 681.47 C 987.82 669.91 1016.55 663.05 1032.17 678.38 Q 1033.94 680.12 1031.48 679.82 Q 1029.63 679.60 1026.89 678.52 A 0.82 0.82 0.0 0 0 1025.81 679.52 L 1029.94 693.27 Q 1030.14 693.92 1030.72 693.58 Q 1031.24 693.28 1031.49 692.78 Q 1038.37 685.84 1041.83 676.92 A 2.04 2.04 0.0 0 0 1041.63 675.06 C 1028.90 655.93 1011.17 640.88 998.81 621.67 C 987.84 604.64 985.24 583.47 973.60 566.46 C 971.73 563.71 966.20 564.40 963.30 564.53 C 949.73 566.27 941.75 577.66 937.69 589.03 Q 935.82 594.28 936.46 588.75 C 937.72 577.74 942.76 566.13 953.28 561.09 Q 955.31 560.12 957.22 559.03 L 961.92 558.41 Q 963.42 558.21 962.11 557.46 C 946.84 548.69 929.79 544.39 913.21 538.78 Q 903.03 535.34 893.92 529.55 A 0.25 0.25 0.0 0 0 893.54 529.73 L 892.25 538.80 Z M 713.02 651.40 Q 690.66 656.99 684.15 659.11 C 675.88 661.80 671.07 681.64 667.97 689.73 C 665.62 695.84 659.53 705.59 652.25 706.46 C 644.79 707.36 636.95 705.93 629.26 706.31 Q 619.67 706.79 611.29 711.74 Q 602.13 716.77 597.21 725.97 Q 596.99 726.39 596.55 726.20 L 596.27 726.08 Q 596.09 726.01 596.16 725.82 C 602.60 706.88 619.52 699.63 638.25 700.29 A 0.67 0.67 0.0 0 0 638.92 699.75 L 640.56 690.99 A 1.92 1.91 -66.1 0 0 639.83 689.09 Q 621.46 675.24 598.00 676.66 C 593.80 676.91 591.60 681.39 591.45 684.94 C 584.87 705.74 579.87 727.73 578.82 749.49 C 578.50 756.00 582.90 760.37 588.93 761.88 Q 589.33 761.98 589.32 761.57 L 589.07 755.29 A 0.53 0.53 0.0 0 1 590.11 755.13 Q 590.89 757.89 594.36 761.93 Q 606.35 767.71 620.93 761.86 Q 636.15 755.77 648.65 745.26 A 0.37 0.37 0.0 0 0 648.65 744.70 Q 641.49 738.34 638.91 729.00 Q 638.69 728.20 639.56 728.37 A 0.51 0.47 -10.8 0 1 639.82 728.53 C 651.45 742.90 668.44 749.93 686.30 752.19 A 0.32 0.31 78.8 0 0 686.61 751.72 Q 681.16 742.01 686.49 732.24 A 0.60 0.59 -61.7 0 0 686.25 731.43 C 672.65 724.21 671.50 705.79 684.77 697.64 C 688.33 695.46 693.43 694.48 697.76 693.27 Q 698.41 693.09 697.97 692.58 L 685.84 678.43 Q 684.65 677.04 686.44 677.43 Q 691.17 678.47 695.37 681.80 C 698.02 683.91 700.11 682.07 701.18 679.39 C 707.12 664.61 722.43 658.55 736.86 656.00 A 0.31 0.30 -21.0 0 0 737.07 655.54 Q 732.92 648.57 724.75 648.44 Q 721.97 648.40 713.02 651.40 Z M 1018.70 761.59 L 1022.33 755.33 Q 1023.12 753.97 1023.32 755.53 Q 1023.69 758.42 1023.23 761.28 A 0.43 0.43 0.0 0 0 1023.74 761.77 C 1029.97 760.45 1033.72 756.07 1033.56 749.63 C 1033.00 728.16 1027.75 706.08 1021.27 685.56 C 1020.95 680.90 1018.72 676.86 1013.50 676.61 Q 991.37 675.55 972.43 689.08 Q 971.71 689.60 971.87 690.47 L 973.57 699.77 A 0.74 0.74 0.0 0 0 974.33 700.37 C 984.89 699.79 996.32 702.37 1004.67 708.63 Q 1011.64 713.84 1014.58 721.36 Q 1017.29 728.25 1013.27 722.03 Q 1009.64 716.43 1001.69 712.22 C 989.72 703.65 975.92 707.09 962.49 706.71 C 949.12 706.32 943.63 687.73 940.27 677.75 C 937.66 670.02 934.73 660.57 926.28 658.33 Q 911.88 654.50 897.08 650.72 C 888.51 648.32 881.05 646.39 875.58 655.33 A 0.62 0.62 0.0 0 0 876.03 656.27 C 891.42 658.36 908.63 663.78 912.08 681.26 Q 912.20 681.87 912.79 682.04 L 915.20 682.72 A 1.25 1.23 33.6 0 0 916.32 682.50 Q 920.19 679.36 924.89 677.64 Q 928.49 676.32 925.99 679.23 L 914.66 692.46 A 0.52 0.52 0.0 0 0 914.91 693.30 C 918.77 694.48 923.45 695.37 926.62 697.00 C 941.16 704.47 940.09 723.05 926.77 731.25 Q 925.87 731.80 926.34 732.75 Q 930.94 742.03 926.25 751.29 Q 925.79 752.21 926.81 752.08 C 944.87 749.70 960.41 742.78 972.57 728.97 Q 974.17 727.16 973.50 729.48 Q 970.99 738.36 964.13 744.45 A 0.64 0.64 0.0 0 0 964.14 745.42 Q 977.94 756.87 993.75 762.71 Q 1007.30 767.71 1018.70 761.59 Z M 708.19 689.72 Q 712.35 690.05 715.96 688.35 A 0.91 0.90 76.7 0 0 716.48 687.50 Q 716.18 681.03 719.52 675.24 C 721.46 671.88 722.79 672.32 725.72 670.86 Q 729.70 668.87 734.23 668.46 Q 734.70 668.41 735.11 668.17 C 737.30 666.83 738.89 668.35 740.78 668.24 Q 741.59 668.32 742.34 668.79 Q 742.77 669.06 743.27 669.10 Q 753.59 670.00 763.45 673.20 C 765.41 673.84 765.85 674.49 765.92 676.52 Q 766.17 684.76 766.17 689.50 C 766.17 694.86 759.94 692.41 756.92 691.87 C 753.69 690.80 749.30 691.16 745.90 690.98 A 0.57 0.56 73.9 0 0 745.41 691.87 C 750.91 699.63 751.17 704.82 747.45 714.10 Q 747.25 714.60 747.73 714.86 C 760.73 721.95 762.32 740.45 749.35 748.33 C 744.01 751.58 734.03 753.31 726.91 755.18 A 0.43 0.43 0.0 0 0 726.70 755.89 Q 728.33 757.64 730.72 758.64 C 741.26 763.07 757.41 765.46 766.89 757.34 Q 769.83 754.82 770.52 752.51 Q 772.73 745.06 775.63 729.23 Q 775.73 728.69 775.77 727.91 L 782.27 703.00 Q 782.41 702.46 781.87 702.35 C 773.82 700.57 765.85 698.66 757.54 699.64 Q 754.31 699.73 753.06 700.01 Q 747.15 701.28 752.70 698.68 L 758.09 696.16 C 767.02 693.89 774.95 695.33 783.69 697.28 A 1.49 1.48 -71.0 0 0 785.36 696.46 Q 789.69 687.26 799.38 683.57 C 803.14 682.15 809.14 681.55 811.99 685.25 Q 812.60 686.03 812.16 686.64 Q 811.88 687.02 811.92 687.49 C 812.51 693.89 808.12 694.36 803.04 694.84 Q 799.52 695.16 795.86 698.98 Q 795.49 699.37 795.98 699.59 Q 797.75 700.38 799.76 700.46 Q 811.16 700.89 822.20 698.29 C 830.62 696.30 839.96 694.03 848.64 695.08 C 851.51 695.43 854.84 696.55 857.93 697.25 Q 860.18 698.03 860.73 698.74 Q 862.17 700.58 859.76 700.28 L 857.44 699.99 C 849.11 698.05 838.93 700.22 830.82 702.47 C 818.14 705.99 806.15 708.68 793.11 705.17 A 1.52 1.52 0.0 0 0 791.29 706.11 Q 787.21 717.12 785.75 727.86 L 782.59 745.99 A 0.89 0.89 0.0 0 0 783.47 747.03 L 835.22 747.00 A 2.19 2.16 78.1 0 1 837.23 748.33 C 841.46 758.31 849.98 762.41 860.51 762.16 C 866.14 762.03 880.22 760.68 883.76 755.63 A 0.56 0.55 25.7 0 0 883.46 754.78 C 872.63 751.55 858.46 750.63 854.97 737.75 C 852.35 728.10 856.33 719.92 864.67 714.85 Q 865.12 714.58 864.94 714.09 C 861.94 706.20 861.18 699.69 866.68 692.77 A 0.92 0.91 26.6 0 0 866.19 691.32 Q 862.42 690.34 859.26 691.16 L 847.45 692.99 A 2.89 2.88 -5.1 0 1 844.12 690.21 Q 843.99 685.13 844.03 679.88 C 844.06 675.52 843.49 673.85 848.01 672.68 Q 860.61 669.41 868.29 668.98 L 876.39 668.34 Q 876.85 668.31 877.12 668.68 Q 877.26 668.88 877.43 669.07 Q 877.71 669.41 878.17 669.55 C 881.29 670.53 885.18 671.37 887.65 673.06 C 891.76 675.85 893.80 681.31 893.50 686.37 Q 893.44 687.40 894.40 687.76 Q 900.55 690.04 905.65 690.08 Q 905.75 690.51 906.00 690.56 Q 906.44 690.64 906.45 690.19 C 906.65 680.76 904.74 673.00 895.79 668.48 Q 877.19 659.08 856.81 664.00 Q 844.02 667.09 831.61 671.50 C 816.95 676.71 804.51 678.83 789.46 674.88 Q 777.44 671.72 765.67 667.69 Q 753.41 663.49 746.51 662.56 C 737.49 661.35 731.23 662.94 722.59 666.34 C 713.84 669.77 704.37 679.38 706.00 689.97 Q 706.08 690.48 706.57 690.63 Q 708.05 691.09 708.19 689.72 Z M 742.50 688.32 C 749.31 687.61 755.82 688.23 762.43 689.96 A 0.44 0.44 0.0 0 0 762.98 689.55 Q 763.13 683.89 763.30 678.25 Q 763.36 676.35 761.25 675.76 C 748.30 672.12 737.39 670.48 724.90 674.93 C 720.45 676.52 719.13 682.89 719.57 686.98 Q 719.63 687.50 720.13 687.35 C 727.51 685.12 732.68 684.00 739.91 687.62 Q 741.51 688.43 742.50 688.32 Z M 884.29 674.68 C 872.35 670.43 859.80 672.28 848.08 675.88 A 1.44 1.43 -8.3 0 0 847.06 677.24 L 847.03 689.46 A 0.48 0.48 0.0 0 0 847.64 689.92 Q 858.58 686.97 869.79 688.69 Q 870.29 688.76 870.75 688.54 C 878.32 684.79 881.59 684.70 890.19 686.58 Q 890.69 686.69 890.70 686.18 C 890.76 681.64 888.96 676.34 884.29 674.68 Z M 687.61 725.30 Q 692.73 728.22 698.76 726.56 Q 716.49 721.70 734.21 716.80 Q 740.06 715.18 742.34 710.54 Q 746.39 702.26 740.32 695.43 Q 734.70 689.67 727.38 691.63 Q 711.69 695.83 696.02 700.07 C 692.92 700.91 689.53 701.56 687.02 703.28 C 679.17 708.64 679.71 719.61 687.61 725.30 Z M 930.6379 717.0142 A 12.61 12.61 0.0 0 0 921.7483 701.5546 L 884.8865 691.6086 A 12.61 12.61 0.0 0 0 869.4270 700.4982 L 869.1821 701.4058 A 12.61 12.61 0.0 0 0 878.0717 716.8654 L 914.9335 726.8114 A 12.61 12.61 0.0 0 0 930.3930 717.9218 L 930.6379 717.0142 Z M 696.04 733.19 L 693.52 733.21 Q 693.02 733.22 692.72 733.61 C 685.25 743.57 693.75 757.21 706.12 754.53 Q 724.16 749.73 742.96 744.37 C 755.26 740.86 755.42 723.69 743.38 719.55 A 1.12 1.12 0.0 0 0 742.42 719.67 Q 738.72 722.02 734.49 723.17 Q 718.25 727.59 701.96 731.82 Q 698.69 732.67 696.04 733.19 Z M 861.48 726.71 C 858.18 734.34 862.01 742.51 870.01 744.72 Q 887.23 749.47 904.51 754.02 C 910.85 755.69 916.38 754.69 920.28 749.21 Q 924.79 742.88 920.73 734.88 A 2.91 2.91 0.0 0 0 918.38 733.29 C 916.55 733.12 914.68 733.02 912.84 732.53 Q 895.13 727.80 877.43 723.02 C 875.07 722.38 873.07 721.35 870.96 720.24 C 867.22 718.27 862.74 723.81 861.48 726.71 Z"/>
  <path fill="#9aa6b2" d=" M 865.85 199.49 Q 865.80 201.13 867.18 201.96 Q 867.59 202.21 867.40 202.65 Q 867.26 202.98 867.54 202.86 A 0.39 0.38 52.5 0 1 867.95 202.92 Q 889.71 221.35 900.67 247.38 C 903.42 253.92 904.37 259.42 905.28 266.50 Q 907.60 284.50 905.38 300.47 Q 901.61 299.04 898.74 298.28 Q 898.17 298.13 898.16 298.78 A 0.50 0.47 27.3 0 0 898.28 299.12 L 904.63 306.47 C 902.10 314.31 899.83 321.46 895.19 328.34 Q 893.79 330.43 888.85 335.70 Q 885.58 339.18 882.71 343.26 Q 873.76 343.04 870.49 343.23 Q 848.09 344.52 833.96 360.30 Q 832.66 361.75 834.35 360.78 Q 843.16 355.72 853.15 353.70 Q 853.25 353.68 853.28 353.78 L 853.36 354.03 Q 853.36 354.04 853.35 354.05 C 838.13 359.79 828.35 373.01 829.17 389.35 Q 829.68 399.68 835.46 407.59 Q 836.75 409.69 837.93 411.01 C 839.30 412.54 841.60 413.09 843.31 414.72 A 0.33 0.33 0.0 0 1 843.08 415.29 L 832.15 415.33 Q 831.29 415.07 830.50 415.12 Q 829.86 415.15 830.11 415.74 Q 830.38 416.40 831.10 416.87 Q 832.64 420.24 835.07 422.17 C 847.04 431.66 862.37 434.25 877.32 432.52 A 0.52 0.51 14.4 0 1 877.80 433.33 L 857.97 461.23 A 0.63 0.62 -72.9 0 0 858.49 462.22 L 869.17 462.02 A 0.57 0.57 0.0 0 1 869.72 462.78 C 865.78 473.91 860.19 482.23 852.07 490.55 Q 848.90 493.78 845.91 497.37 Q 834.61 505.33 823.18 509.41 C 804.62 516.04 786.01 509.09 770.82 498.17 Q 765.45 494.30 761.47 490.44 Q 750.36 477.66 745.77 462.79 A 0.51 0.51 0.0 0 1 746.26 462.13 L 757.29 462.30 A 0.52 0.52 0.0 0 0 757.72 461.48 L 738.07 433.71 A 0.44 0.44 0.0 0 1 738.42 433.02 C 751.94 432.90 764.26 430.96 774.87 421.87 Q 777.38 419.72 778.18 417.13 Q 779.30 416.81 779.80 415.56 Q 780.03 414.98 779.42 415.08 L 776.02 415.61 L 766.98 415.79 A 0.89 0.86 -0.0 0 1 766.07 414.91 Q 766.07 414.75 766.32 414.45 Q 766.47 414.26 766.73 414.17 Q 772.76 411.91 775.36 406.41 Q 777.08 404.07 777.96 401.47 Q 786.73 375.51 766.22 359.39 C 764.61 358.13 761.34 355.99 759.87 355.36 Q 753.02 352.40 760.21 354.40 Q 767.59 356.45 774.82 360.56 Q 776.76 361.67 775.47 359.75 Q 775.01 359.05 773.45 358.04 Q 773.75 357.35 774.35 357.32 Q 774.75 357.29 775.28 357.73 Q 776.79 358.95 777.84 359.57 Q 779.45 360.53 778.31 359.04 C 767.14 344.50 748.90 335.73 730.40 338.06 A 3.33 3.31 64.1 0 1 727.60 337.08 C 711.46 320.50 707.66 298.53 709.26 276.13 C 710.04 265.19 711.30 255.57 715.37 246.08 C 721.14 232.64 728.94 221.90 738.95 211.26 Q 743.11 206.83 747.12 202.06 Q 754.08 197.66 762.26 194.23 Q 781.58 186.12 803.00 183.72 Q 805.65 183.43 807.65 183.52 C 827.00 184.45 849.03 189.52 865.85 199.49 Z M 737.17 253.72 L 735.07 254.45 Q 734.05 254.80 735.13 254.89 C 754.86 256.59 771.25 267.90 790.51 273.26 C 811.61 279.14 827.97 267.95 846.76 260.07 Q 855.34 256.47 868.08 254.18 Q 850.12 246.76 833.24 250.82 C 820.72 253.83 808.69 258.48 795.22 256.65 C 785.89 255.38 776.78 250.54 768.12 249.26 Q 752.36 246.92 737.17 253.72 Z M 867.19 278.18 C 861.88 277.42 857.26 277.24 851.97 278.63 C 841.23 281.44 832.08 288.10 822.88 293.62 C 815.70 297.93 808.71 301.49 800.36 301.28 C 785.67 300.93 774.99 287.70 762.33 282.18 Q 749.67 276.65 735.77 279.30 Q 734.23 279.59 735.77 279.85 C 744.10 281.28 752.02 286.39 758.18 291.57 C 767.02 299.00 779.53 311.28 792.45 319.29 C 804.29 326.63 815.48 322.65 824.76 313.78 Q 833.11 305.79 842.78 295.54 C 849.09 288.86 856.99 281.08 866.51 279.72 Q 867.57 279.57 867.72 278.98 Q 867.90 278.29 867.19 278.18 Z M 811.46 469.57 C 825.82 476.97 842.65 478.16 849.81 461.32 Q 850.35 460.06 849.33 460.97 C 836.57 472.39 822.33 470.10 808.36 461.82 A 1.53 1.52 -45.2 0 0 806.80 461.83 C 793.41 470.09 778.43 472.12 766.33 461.01 Q 765.20 459.98 765.62 461.45 C 771.08 480.30 793.23 473.60 805.85 468.66 C 808.23 467.73 809.40 468.52 811.46 469.57 Z M 795.13 480.98 Q 809.42 486.12 823.15 479.88 Q 824.75 479.16 823.01 478.91 C 818.49 478.28 813.63 476.71 809.26 476.44 C 803.55 476.09 797.80 478.23 792.23 478.87 Q 791.06 479.01 792.07 479.61 Q 793.29 480.32 795.13 480.98 Z"/>
  <path fill="#616b75" d=" M 865.85 199.49 Q 882.09 207.98 894.86 221.09 Q 907.24 241.84 914.10 263.42 Q 921.13 285.52 917.10 308.49 Q 911.83 303.77 905.38 300.47 Q 907.60 284.50 905.28 266.50 C 904.37 259.42 903.42 253.92 900.67 247.38 Q 889.71 221.35 867.95 202.92 A 0.39 0.38 52.5 0 0 867.54 202.86 Q 867.26 202.98 867.40 202.65 Q 867.59 202.21 867.18 201.96 Q 865.80 201.13 865.85 199.49 Z"/>
  <path fill="#616b75" d=" M 747.12 202.06 Q 743.11 206.83 738.95 211.26 C 728.94 221.90 721.14 232.64 715.37 246.08 C 711.30 255.57 710.04 265.19 709.26 276.13 C 707.66 298.53 711.46 320.50 727.60 337.08 A 3.33 3.31 64.1 0 0 730.40 338.06 C 748.90 335.73 767.14 344.50 778.31 359.04 Q 779.45 360.53 777.84 359.57 Q 776.79 358.95 775.28 357.73 Q 774.75 357.29 774.35 357.32 Q 773.75 357.35 773.45 358.04 C 755.84 340.77 730.33 340.41 708.25 347.16 Q 706.68 347.64 708.32 347.71 Q 717.51 348.09 727.49 348.94 Q 729.71 349.13 731.86 349.64 A 0.02 0.01 48.3 0 1 731.86 349.67 Q 715.72 350.57 701.88 358.16 A 2.97 2.91 -5.7 0 0 700.51 359.80 C 692.81 382.48 711.20 403.87 730.94 412.07 C 741.91 416.64 758.18 417.98 768.48 410.82 Q 771.74 408.55 775.36 406.41 Q 772.76 411.91 766.73 414.17 Q 766.47 414.26 766.32 414.45 Q 766.07 414.75 766.07 414.91 A 0.89 0.86 -0.0 0 0 766.98 415.79 L 776.02 415.61 Q 760.90 420.44 745.26 419.86 C 719.18 418.90 704.04 402.53 697.81 378.39 Q 697.66 377.80 697.25 378.24 Q 697.07 378.43 697.09 378.76 C 698.13 402.95 715.05 420.05 738.25 424.57 Q 759.70 428.75 778.18 417.13 Q 777.38 419.72 774.87 421.87 C 764.26 430.96 751.94 432.90 738.42 433.02 A 0.44 0.44 0.0 0 0 738.07 433.71 L 757.72 461.48 A 0.52 0.52 0.0 0 1 757.29 462.30 L 746.26 462.13 A 0.51 0.51 0.0 0 0 745.77 462.79 Q 750.36 477.66 761.47 490.44 Q 749.09 483.14 742.32 470.95 Q 737.85 462.90 733.71 454.98 Q 733.12 453.85 734.31 454.31 C 737.14 455.40 740.11 456.54 743.27 456.67 Q 744.03 456.70 743.44 456.22 C 729.29 444.60 712.21 430.37 704.26 413.48 C 688.23 379.39 685.94 340.45 687.74 303.49 Q 688.70 283.97 693.44 265.75 C 696.16 255.31 700.41 247.09 707.54 238.22 C 719.26 223.62 730.65 211.60 747.12 202.06 Z"/>
  <path fill="#ffffff" d=" M 894.86 221.09 Q 914.11 241.68 921.02 266.74 Q 927.84 291.51 922.98 316.90 A 0.23 0.23 0.0 0 1 922.55 316.95 Q 920.62 312.47 917.10 308.49 Q 921.13 285.52 914.10 263.42 Q 907.24 241.84 894.86 221.09 Z"/>
  <path fill="#616b75" d=" M 868.08 254.18 Q 861.09 253.81 859.25 253.84 C 846.62 254.05 833.58 258.46 820.98 261.91 C 809.26 265.12 798.08 266.03 786.25 262.93 Q 782.18 261.86 768.51 257.55 Q 757.71 254.14 743.94 254.27 C 741.74 254.29 739.48 253.85 737.17 253.72 Q 752.36 246.92 768.12 249.26 C 776.78 250.54 785.89 255.38 795.22 256.65 C 808.69 258.48 820.72 253.83 833.24 250.82 Q 850.12 246.76 868.08 254.18 Z"/>
  <path fill="#111240" d=" M 737.17 253.72 C 739.48 253.85 741.74 254.29 743.94 254.27 Q 757.71 254.14 768.51 257.55 Q 782.18 261.86 786.25 262.93 C 798.08 266.03 809.26 265.12 820.98 261.91 C 833.58 258.46 846.62 254.05 859.25 253.84 Q 861.09 253.81 868.08 254.18 Q 855.34 256.47 846.76 260.07 C 827.97 267.95 811.61 279.14 790.51 273.26 C 771.25 267.90 754.86 256.59 735.13 254.89 Q 734.05 254.80 735.07 254.45 L 737.17 253.72 Z"/>
  <path fill="#b7c4cc" d=" M 867.19 278.18 Q 867.90 278.29 867.72 278.98 Q 867.57 279.57 866.51 279.72 C 856.99 281.08 849.09 288.86 842.78 295.54 Q 833.11 305.79 824.76 313.78 C 815.48 322.65 804.29 326.63 792.45 319.29 C 779.53 311.28 767.02 299.00 758.18 291.57 C 752.02 286.39 744.10 281.28 735.77 279.85 Q 734.23 279.59 735.77 279.30 Q 749.67 276.65 762.33 282.18 C 774.99 287.70 785.67 300.93 800.36 301.28 C 808.71 301.49 815.70 297.93 822.88 293.62 C 832.08 288.10 841.23 281.44 851.97 278.63 C 857.26 277.24 861.88 277.42 867.19 278.18 Z"/>
  <path d=" M 684.48 278.64 Q 681.41 298.32 681.33 318.50 Q 681.23 340.82 682.55 355.00 C 684.17 372.53 689.28 393.76 696.56 411.11 Q 705.54 432.53 723.19 447.56 Q 723.94 448.20 724.31 449.07 Q 734.49 472.75 752.78 490.86 Q 753.08 491.16 753.08 491.59 L 753.26 500.83 A 0.58 0.57 -88.6 0 1 752.65 501.42 C 739.60 500.65 727.30 504.60 721.49 517.27 Q 720.43 519.58 719.70 521.45 A 2.90 2.89 -3.3 0 1 718.38 522.93 C 704.76 530.31 689.89 534.75 675.00 538.72 C 661.39 542.34 646.97 547.48 637.61 558.60 C 626.97 571.24 622.45 586.25 616.94 601.47 Q 612.25 614.44 603.53 625.54 Q 600.35 621.39 596.91 615.57 C 528.28 499.64 564.78 351.47 680.07 281.39 Q 682.32 280.02 684.48 278.64 Z" style="fill: rgb(233, 30, 99);"/>
  <path d=" M 930.51 280.87 Q 931.92 281.13 933.14 281.87 C 1050.94 353.94 1086.16 510.35 1008.97 625.45 C 998.12 611.73 993.72 596.02 987.84 580.45 C 984.61 571.89 979.98 563.08 972.54 557.44 C 960.58 548.38 947.14 543.23 932.86 538.99 C 918.11 534.63 904.42 530.42 894.46 522.59 C 891.95 520.62 890.44 516.19 888.96 514.09 C 883.09 505.77 872.63 502.15 862.75 502.21 A 0.58 0.58 0.0 0 1 862.16 501.59 C 862.47 497.29 863.13 492.99 866.17 489.59 C 875.75 478.92 882.73 464.89 887.70 451.70 Q 888.74 448.95 890.54 446.74 C 909.65 423.31 927.37 395.52 929.75 364.75 Q 930.89 349.93 927.20 331.95 C 926.43 328.21 927.31 325.91 928.13 322.20 Q 932.52 302.29 930.19 281.50 Q 930.14 280.99 930.51 280.87 Z" style="fill: rgb(233, 30, 99);"/>
  <path fill="#616b75" d=" M 904.63 306.47 L 909.66 312.78 Q 910.96 315.65 912.35 318.46 C 922.13 338.13 922.28 362.80 915.82 383.56 Q 909.73 403.13 898.57 420.31 Q 887.45 437.43 873.39 452.71 Q 872.16 454.79 869.92 455.73 A 0.79 0.79 0.0 0 0 870.36 457.23 L 879.34 455.68 A 0.22 0.21 -83.1 0 1 879.57 455.98 C 872.43 473.00 863.53 488.47 845.91 497.37 Q 848.90 493.78 852.07 490.55 C 860.19 482.23 865.78 473.91 869.72 462.78 A 0.57 0.57 0.0 0 0 869.17 462.02 L 858.49 462.22 A 0.63 0.62 -72.9 0 1 857.97 461.23 L 877.80 433.33 A 0.52 0.51 14.4 0 0 877.32 432.52 C 862.37 434.25 847.04 431.66 835.07 422.17 Q 832.64 420.24 831.10 416.87 C 835.20 418.98 839.45 421.53 843.56 422.88 Q 861.46 428.77 879.62 422.42 C 898.04 415.97 912.43 399.26 912.24 379.10 Q 912.24 378.97 912.18 378.92 Q 912.10 378.85 911.95 378.84 Q 911.78 378.83 911.73 379.00 C 906.06 401.17 891.68 417.50 867.73 419.67 Q 849.56 421.32 832.15 415.33 L 843.08 415.29 A 0.33 0.33 0.0 0 0 843.31 414.72 C 841.60 413.09 839.30 412.54 837.93 411.01 Q 836.75 409.69 835.46 407.59 C 859.77 424.33 889.35 413.50 904.62 390.63 Q 913.89 376.75 909.46 360.53 Q 908.99 358.82 907.23 357.87 Q 893.78 350.62 879.01 349.81 Q 876.76 349.68 879.00 349.43 Q 889.44 348.22 899.95 347.72 Q 904.15 347.52 900.03 346.71 L 882.71 343.26 Q 885.58 339.18 888.85 335.70 Q 893.79 330.43 895.19 328.34 C 899.83 321.46 902.10 314.31 904.63 306.47 Z"/>
  <path fill="#ffffff" d=" M 909.66 312.78 C 916.89 321.43 920.99 330.42 922.70 341.89 C 927.19 372.11 917.28 400.81 899.03 424.77 Q 885.77 442.18 873.39 452.71 Q 887.45 437.43 898.57 420.31 Q 909.73 403.13 915.82 383.56 C 922.28 362.80 922.13 338.13 912.35 318.46 Q 910.96 315.65 909.66 312.78 Z"/>
  <path d=" M 773.45 358.04 Q 775.01 359.05 775.47 359.75 Q 776.76 361.67 774.82 360.56 Q 767.59 356.45 760.21 354.40 Q 753.02 352.40 759.87 355.36 C 761.34 355.99 764.61 358.13 766.22 359.39 Q 786.73 375.51 777.96 401.47 Q 777.08 404.07 775.36 406.41 Q 771.74 408.55 768.48 410.82 C 758.18 417.98 741.91 416.64 730.94 412.07 C 711.20 403.87 692.81 382.48 700.51 359.80 A 2.97 2.91 -5.7 0 1 701.88 358.16 Q 715.72 350.57 731.86 349.67 A 0.02 0.01 48.3 0 0 731.86 349.64 Q 729.71 349.13 727.49 348.94 Q 717.51 348.09 708.32 347.71 Q 706.68 347.64 708.25 347.16 C 730.33 340.41 755.84 340.77 773.45 358.04 Z M 777.30 386.01 C 778.51 373.29 765.81 360.99 754.74 357.12 Q 753.91 356.83 754.57 357.41 C 755.69 358.41 757.04 359.27 757.93 360.32 C 763.76 367.24 766.52 376.28 770.06 384.47 Q 771.25 387.21 773.60 389.26 A 1.85 1.85 0.0 0 0 776.21 389.09 Q 777.10 388.07 777.30 386.01 Z M 712.16 380.72 Q 711.87 382.34 711.08 380.90 C 707.80 374.88 705.33 368.72 703.57 362.35 Q 703.10 360.63 702.85 362.40 C 699.87 384.31 717.17 403.58 737.42 409.10 Q 756.67 414.34 773.47 404.78 Q 774.71 404.08 773.31 404.31 C 757.74 406.80 740.61 405.48 726.60 397.38 A 0.30 0.29 -37.8 0 1 726.67 396.84 C 739.81 393.19 728.51 373.00 717.01 375.41 Q 712.95 376.26 712.16 380.72 Z" style="fill: rgb(19, 66, 66);"/>
  <path d=" M 882.71 343.26 L 900.03 346.71 Q 904.15 347.52 899.95 347.72 Q 889.44 348.22 879.00 349.43 Q 876.76 349.68 879.01 349.81 Q 893.78 350.62 907.23 357.87 Q 908.99 358.82 909.46 360.53 Q 913.89 376.75 904.62 390.63 C 889.35 413.50 859.77 424.33 835.46 407.59 Q 829.68 399.68 829.17 389.35 C 828.35 373.01 838.13 359.79 853.35 354.05 Q 853.36 354.04 853.36 354.03 L 853.28 353.78 Q 853.25 353.68 853.15 353.70 Q 843.16 355.72 834.35 360.78 Q 832.66 361.75 833.96 360.30 Q 848.09 344.52 870.49 343.23 Q 873.76 343.04 882.71 343.26 Z M 849.46 368.77 A 0.59 0.59 0.0 0 1 848.99 367.77 Q 857.02 359.87 866.46 353.76 Q 868.63 352.35 866.10 352.88 C 848.06 356.60 829.99 375.05 833.98 394.75 A 0.22 0.22 0.0 0 0 834.41 394.78 L 839.88 380.33 Q 840.16 379.58 840.76 380.12 C 844.85 383.80 850.98 379.70 852.99 375.87 C 854.65 372.72 854.04 368.34 849.46 368.77 Z M 872.65 403.56 C 863.84 407.01 855.72 407.62 846.35 407.49 Q 845.07 407.47 846.24 407.99 C 872.04 419.53 909.63 396.28 905.24 366.81 Q 904.89 364.46 904.21 366.74 C 899.43 382.72 888.76 397.26 872.65 403.56 Z" style="fill: rgb(19, 66, 66);"/>
  <path fill="#ffffff" d=" M 849.46 368.77 C 854.04 368.34 854.65 372.72 852.99 375.87 C 850.98 379.70 844.85 383.80 840.76 380.12 Q 840.16 379.58 839.88 380.33 L 834.41 394.78 A 0.22 0.22 0.0 0 1 833.98 394.75 C 829.99 375.05 848.06 356.60 866.10 352.88 Q 868.63 352.35 866.46 353.76 Q 857.02 359.87 848.99 367.77 A 0.59 0.59 0.0 0 0 849.46 368.77 Z"/>
  <path fill="#ffffff" d=" M 754.74 357.12 C 765.81 360.99 778.51 373.29 777.30 386.01 Q 777.10 388.07 776.21 389.09 A 1.85 1.85 0.0 0 1 773.60 389.26 Q 771.25 387.21 770.06 384.47 C 766.52 376.28 763.76 367.24 757.93 360.32 C 757.04 359.27 755.69 358.41 754.57 357.41 Q 753.91 356.83 754.74 357.12 Z"/>
  <path fill="#ffffff" d=" M 712.16 380.72 Q 712.95 376.26 717.01 375.41 C 728.51 373.00 739.81 393.19 726.67 396.84 A 0.30 0.29 -37.8 0 0 726.60 397.38 C 740.61 405.48 757.74 406.80 773.31 404.31 Q 774.71 404.08 773.47 404.78 Q 756.67 414.34 737.42 409.10 C 717.17 403.58 699.87 384.31 702.85 362.40 Q 703.10 360.63 703.57 362.35 C 705.33 368.72 707.80 374.88 711.08 380.90 Q 711.87 382.34 712.16 380.72 Z"/>
  <path fill="#ffffff" d=" M 872.65 403.56 C 888.76 397.26 899.43 382.72 904.21 366.74 Q 904.89 364.46 905.24 366.81 C 909.63 396.28 872.04 419.53 846.24 407.99 Q 845.07 407.47 846.35 407.49 C 855.72 407.62 863.84 407.01 872.65 403.56 Z"/>
  <path fill="#111240" d=" M 776.02 415.61 L 779.42 415.08 Q 780.03 414.98 779.80 415.56 Q 779.30 416.81 778.18 417.13 Q 759.70 428.75 738.25 424.57 C 715.05 420.05 698.13 402.95 697.09 378.76 Q 697.07 378.43 697.25 378.24 Q 697.66 377.80 697.81 378.39 C 704.04 402.53 719.18 418.90 745.26 419.86 Q 760.90 420.44 776.02 415.61 Z"/>
  <path fill="#111240" d=" M 831.10 416.87 Q 830.38 416.40 830.11 415.74 Q 829.86 415.15 830.50 415.12 Q 831.29 415.07 832.15 415.33 Q 849.56 421.32 867.73 419.67 C 891.68 417.50 906.06 401.17 911.73 379.00 Q 911.78 378.83 911.95 378.84 Q 912.10 378.85 912.18 378.92 Q 912.24 378.97 912.24 379.10 C 912.43 399.26 898.04 415.97 879.62 422.42 Q 861.46 428.77 843.56 422.88 C 839.45 421.53 835.20 418.98 831.10 416.87 Z"/>
  <path fill="#111240" d=" M 811.46 469.57 C 809.40 468.52 808.23 467.73 805.85 468.66 C 793.23 473.60 771.08 480.30 765.62 461.45 Q 765.20 459.98 766.33 461.01 C 778.43 472.12 793.41 470.09 806.80 461.83 A 1.53 1.52 -45.2 0 1 808.36 461.82 C 822.33 470.10 836.57 472.39 849.33 460.97 Q 850.35 460.06 849.81 461.32 C 842.65 478.16 825.82 476.97 811.46 469.57 Z"/>
  <path fill="#111240" d=" M 795.13 480.98 Q 793.29 480.32 792.07 479.61 Q 791.06 479.01 792.23 478.87 C 797.80 478.23 803.55 476.09 809.26 476.44 C 813.63 476.71 818.49 478.28 823.01 478.91 Q 824.75 479.16 823.15 479.88 Q 809.42 486.12 795.13 480.98 Z"/>
  <path fill="#616b75" d=" M 858.30 497.74 C 855.14 509.25 855.78 527.74 869.63 532.35 A 0.66 0.66 0.0 0 1 869.95 533.38 C 861.83 543.92 849.65 549.55 836.45 552.52 Q 802.06 560.26 768.57 549.51 C 759.28 546.53 749.36 541.67 742.46 534.62 A 0.84 0.84 0.0 0 1 742.63 533.31 C 755.39 525.76 759.89 511.88 759.22 497.66 A 0.48 0.47 -70.4 0 1 760.01 497.28 C 772.55 508.46 791.34 518.57 808.67 518.19 C 826.24 517.81 843.60 507.33 857.02 496.76 Q 857.88 496.09 858.42 497.03 Q 858.47 497.11 858.30 497.74 Z M 769.79 523.00 Q 769.01 522.72 769.21 523.52 C 771.41 532.00 779.56 538.10 787.53 540.66 Q 807.56 547.08 827.33 539.93 Q 840.13 535.30 846.46 524.69 Q 847.59 522.79 845.50 523.52 Q 807.56 536.76 769.79 523.00 Z"/>
  <path fill="#ffffff" d=" M 749.77 507.38 Q 749.69 508.04 748.02 508.71 C 736.53 513.82 730.06 524.45 736.28 536.75 Q 737.14 538.47 740.55 541.22 C 767.64 563.17 809.83 565.91 842.02 557.51 C 853.64 554.47 865.43 548.26 873.39 538.83 Q 875.78 535.99 876.68 533.11 C 880.55 520.69 873.51 513.55 862.43 510.40 Q 861.89 510.25 861.69 509.72 Q 861.48 509.20 861.60 508.67 Q 861.73 508.13 862.28 508.15 C 875.10 508.53 887.68 514.62 887.60 529.06 C 887.46 553.47 863.65 564.91 843.25 569.10 Q 822.83 573.28 808.25 573.05 C 780.69 572.61 732.38 567.76 725.60 532.68 C 722.46 516.40 734.76 507.48 749.77 507.38 Z"/>
  <path d=" M 749.77 507.38 Q 751.02 507.24 752.12 507.68 Q 752.62 507.88 752.53 508.40 Q 750.61 520.60 740.62 527.66 Q 739.55 528.41 738.92 527.27 Q 738.13 525.86 738.69 523.48 Q 740.54 515.64 747.95 510.44 Q 748.98 509.72 748.02 508.71 Q 749.69 508.04 749.77 507.38 Z" style="fill: rgb(123, 194, 194);"/>
  <path d=" M 863.05 519.59 L 861.69 512.58 Q 861.05 509.25 863.58 511.51 C 867.59 515.11 871.07 519.42 871.98 524.61 Q 872.50 527.54 869.88 526.13 L 866.55 524.35 A 6.89 6.89 0.0 0 1 863.05 519.59 Z" style="fill: rgb(123, 194, 194);"/>
  <path fill="#9aa6b2" d=" M 769.79 523.00 Q 807.56 536.76 845.50 523.52 Q 847.59 522.79 846.46 524.69 Q 840.13 535.30 827.33 539.93 Q 807.56 547.08 787.53 540.66 C 779.56 538.10 771.41 532.00 769.21 523.52 Q 769.01 522.72 769.79 523.00 Z"/>
  <path fill="#ffffff" d=" M 957.22 559.03 C 938.94 549.99 920.01 546.68 900.98 542.01 Q 897.91 541.26 892.25 538.80 L 893.54 529.73 A 0.25 0.25 0.0 0 1 893.92 529.55 Q 903.03 535.34 913.21 538.78 C 929.79 544.39 946.84 548.69 962.11 557.46 Q 963.42 558.21 961.92 558.41 L 957.22 559.03 Z"/>
  <path fill="#ffffff" d=" M 720.81 538.82 Q 704.32 544.20 687.50 547.76 Q 670.89 551.27 655.22 558.82 L 647.07 557.93 Q 646.54 557.87 646.97 557.55 C 654.74 551.90 662.21 548.80 672.02 546.00 C 687.79 541.49 703.84 537.31 718.52 529.69 A 0.45 0.45 0.0 0 1 719.17 530.01 L 720.81 538.82 Z"/>
  <path d=" M 720.81 538.82 Q 721.56 540.34 722.22 542.38 Q 722.93 544.57 723.69 545.91 C 736.37 568.20 762.60 574.68 786.10 577.62 Q 813.65 581.06 841.74 575.47 C 858.85 572.06 875.93 565.77 886.47 551.72 Q 890.44 546.45 892.25 538.80 Q 897.91 541.26 900.98 542.01 C 920.01 546.68 938.94 549.99 957.22 559.03 Q 955.31 560.12 953.28 561.09 C 942.76 566.13 937.72 577.74 936.46 588.75 Q 935.82 594.28 937.69 589.03 C 941.75 577.66 949.73 566.27 963.30 564.53 Q 972.15 575.88 977.29 588.75 Q 966.93 587.88 964.29 595.88 C 962.79 600.41 963.37 608.64 964.52 613.51 C 967.65 626.81 971.66 640.49 972.32 653.85 C 972.54 658.48 981.26 660.41 984.99 660.59 Q 1002.49 661.47 1014.85 650.53 Q 1025.90 661.98 1035.96 675.81 C 1038.65 679.51 1033.11 689.16 1031.18 692.01 Q 1030.77 692.62 1031.49 692.78 Q 1031.24 693.28 1030.72 693.58 Q 1030.14 693.92 1029.94 693.27 L 1025.81 679.52 A 0.82 0.82 0.0 0 1 1026.89 678.52 Q 1029.63 679.60 1031.48 679.82 Q 1033.94 680.12 1032.17 678.38 C 1016.55 663.05 987.82 669.91 971.78 681.47 C 965.83 685.76 962.56 691.10 960.76 697.97 Q 960.45 699.17 961.68 699.05 A 0.72 0.72 0.0 0 0 962.12 698.83 L 965.67 694.92 A 0.67 0.67 0.0 0 1 966.82 695.24 L 967.74 699.88 A 1.02 1.02 0.0 0 1 966.58 701.09 L 956.18 699.52 A 1.08 1.07 -5.0 0 1 955.33 698.81 C 953.77 694.34 951.24 690.20 949.84 686.03 Q 940.16 657.35 936.08 627.37 C 935.23 621.13 934.96 614.18 934.57 607.80 Q 934.37 604.63 933.89 607.77 Q 930.22 631.49 934.58 655.03 A 0.40 0.39 11.6 0 1 933.97 655.43 C 932.05 654.12 930.22 653.27 927.84 652.63 Q 909.53 647.72 891.21 642.83 C 881.94 640.36 872.22 646.81 869.06 655.57 Q 868.89 656.06 868.37 656.09 C 852.21 657.19 838.24 663.20 823.46 667.88 Q 804.86 673.78 786.22 667.88 C 772.59 663.57 758.79 658.09 744.55 656.31 A 1.07 1.06 -12.7 0 1 743.78 655.83 Q 742.99 654.60 742.33 653.36 Q 737.20 643.75 727.70 642.70 Q 723.51 642.24 713.99 644.78 Q 698.99 648.78 684.00 652.75 Q 680.83 653.59 678.82 655.35 Q 677.51 656.48 677.86 654.79 Q 682.58 631.59 678.64 608.23 Q 678.20 605.63 678.10 608.26 C 677.09 634.90 670.89 662.34 662.22 687.47 Q 659.89 694.21 654.67 698.83 C 652.21 701.00 648.83 700.86 645.78 700.89 A 0.89 0.89 0.0 0 1 644.90 699.85 L 645.69 695.38 A 0.64 0.64 0.0 0 1 646.71 694.99 Q 648.77 696.59 650.37 698.86 Q 650.78 699.44 651.28 699.27 A 0.74 0.74 0.0 0 0 651.77 698.43 C 650.26 690.80 646.63 685.55 640.06 680.97 Q 624.55 670.16 605.63 669.71 C 596.64 669.50 586.97 671.63 580.79 677.77 Q 577.20 681.32 581.98 679.69 Q 584.17 678.95 586.37 678.58 A 0.41 0.40 -86.3 0 1 586.82 679.10 L 583.00 692.01 Q 582.93 692.25 582.79 692.45 Q 582.54 692.83 582.40 693.66 Q 577.26 686.24 575.68 678.61 A 2.65 2.65 0.0 0 1 576.13 676.51 Q 585.72 663.29 597.73 650.35 Q 600.72 653.58 602.80 654.72 Q 616.46 662.27 632.01 659.74 C 634.86 659.27 640.24 657.33 640.42 653.96 Q 640.92 644.41 642.25 638.81 Q 645.41 625.44 648.27 612.01 C 650.51 601.54 650.36 587.74 635.32 588.47 C 638.53 580.94 642.79 572.25 647.99 566.29 Q 648.74 565.42 649.00 564.53 C 663.33 566.13 671.54 578.65 675.72 591.34 A 0.35 0.35 0.0 0 0 676.29 591.48 Q 676.41 591.37 676.35 591.15 Q 676.29 590.92 676.28 590.83 C 675.50 578.99 670.50 566.97 659.53 561.16 Q 657.51 560.09 655.22 558.82 Q 670.89 551.27 687.50 547.76 Q 704.32 544.20 720.81 538.82 Z M 715.58 594.86 Q 723.62 609.60 724.71 626.34 A 0.63 0.63 0.0 0 0 725.36 626.93 C 736.71 626.61 751.48 629.38 755.69 641.72 A 1.13 1.13 0.0 0 0 756.76 642.49 L 860.07 642.50 A 2.49 2.48 -73.1 0 0 862.14 641.39 C 868.39 632.02 876.82 629.58 887.65 628.27 A 1.79 1.78 3.3 0 0 889.17 626.92 Q 893.92 607.06 906.90 591.38 Q 908.02 590.03 906.32 590.41 C 842.72 604.52 777.89 603.80 713.97 590.20 A 0.47 0.47 0.0 0 0 713.45 590.88 Q 714.53 592.94 715.58 594.86 Z" style="fill: rgb(0, 128, 128);"/>
  <path fill="#ffffff" d=" M 649.00 564.53 Q 648.74 565.42 647.99 566.29 C 642.79 572.25 638.53 580.94 635.32 588.47 Q 630.88 599.45 625.87 610.93 Q 621.94 619.93 616.95 626.96 Q 608.47 638.90 597.73 650.35 Q 585.72 663.29 576.13 676.51 A 2.65 2.65 0.0 0 0 575.68 678.61 Q 577.26 686.24 582.40 693.66 Q 574.28 686.60 570.58 676.45 A 1.00 0.97 52.4 0 1 570.68 675.59 Q 575.76 667.73 581.83 660.33 C 591.07 649.07 606.28 633.91 615.07 619.52 C 621.59 608.85 625.77 594.49 630.56 582.25 C 632.78 576.55 636.04 569.67 640.21 565.13 A 1.21 1.17 19.4 0 1 641.04 564.75 L 649.00 564.53 Z"/>
  <path fill="#ffffff" d=" M 1031.49 692.78 Q 1030.77 692.62 1031.18 692.01 C 1033.11 689.16 1038.65 679.51 1035.96 675.81 Q 1025.90 661.98 1014.85 650.53 C 1003.38 637.26 992.89 625.33 985.86 608.97 Q 981.54 598.91 977.29 588.75 Q 972.15 575.88 963.30 564.53 C 966.20 564.40 971.73 563.71 973.60 566.46 C 985.24 583.47 987.84 604.64 998.81 621.67 C 1011.17 640.88 1028.90 655.93 1041.63 675.06 A 2.04 2.04 0.0 0 1 1041.83 676.92 Q 1038.37 685.84 1031.49 692.78 Z"/>
  <path d=" M 635.32 588.47 C 650.36 587.74 650.51 601.54 648.27 612.01 Q 645.41 625.44 642.25 638.81 Q 640.92 644.41 640.42 653.96 C 640.24 657.33 634.86 659.27 632.01 659.74 Q 616.46 662.27 602.80 654.72 Q 600.72 653.58 597.73 650.35 Q 608.47 638.90 616.95 626.96 Q 621.94 619.93 625.87 610.93 Q 630.88 599.45 635.32 588.47 Z" style="fill: rgb(123, 194, 194);"/>
  <path d=" M 977.29 588.75 Q 981.54 598.91 985.86 608.97 C 992.89 625.33 1003.38 637.26 1014.85 650.53 Q 1002.49 661.47 984.99 660.59 C 981.26 660.41 972.54 658.48 972.32 653.85 C 971.66 640.49 967.65 626.81 964.52 613.51 C 963.37 608.64 962.79 600.41 964.29 595.88 Q 966.93 587.88 977.29 588.75 Z" style="fill: rgb(123, 194, 194);"/>
  <path d=" M 715.58 594.86 Q 714.53 592.94 713.45 590.88 A 0.47 0.47 0.0 0 1 713.97 590.20 C 777.89 603.80 842.72 604.52 906.32 590.41 Q 908.02 590.03 906.90 591.38 Q 893.92 607.06 889.17 626.92 A 1.79 1.78 3.3 0 1 887.65 628.27 C 876.82 629.58 868.39 632.02 862.14 641.39 A 2.49 2.48 -73.1 0 1 860.07 642.50 L 756.76 642.49 A 1.13 1.13 0.0 0 1 755.69 641.72 C 751.48 629.38 736.71 626.61 725.36 626.93 A 0.63 0.63 0.0 0 1 724.71 626.34 Q 723.62 609.60 715.58 594.86 Z" style="fill: rgb(123, 194, 194);"/>
  <path fill="#616b75" d=" M 594.36 761.93 Q 593.85 758.46 591.85 755.54 A 1.16 1.16 0.0 0 1 592.89 753.73 C 603.45 754.48 628.40 749.92 627.80 734.85 C 627.36 723.59 612.56 722.52 604.75 724.72 Q 599.18 726.30 596.09 727.67 Q 595.53 727.92 595.51 727.31 Q 595.50 727.16 595.51 726.99 A 1.74 1.71 35.1 0 0 595.37 726.22 Q 589.11 711.64 590.44 697.50 Q 591.34 687.92 591.45 684.94 C 591.60 681.39 593.80 676.91 598.00 676.66 Q 621.46 675.24 639.83 689.09 A 1.92 1.91 -66.1 0 1 640.56 690.99 L 638.92 699.75 A 0.67 0.67 0.0 0 1 638.25 700.29 C 619.52 699.63 602.60 706.88 596.16 725.82 Q 596.09 726.01 596.27 726.08 L 596.55 726.20 Q 596.99 726.39 597.21 725.97 Q 602.13 716.77 611.29 711.74 Q 621.62 709.32 627.50 709.79 C 635.75 710.46 644.43 711.68 652.64 710.09 C 669.42 706.84 672.69 688.07 677.35 674.78 C 682.34 660.56 689.53 659.32 703.49 656.43 Q 709.07 655.28 713.02 651.40 Q 721.97 648.40 724.75 648.44 Q 732.92 648.57 737.07 655.54 A 0.31 0.30 -21.0 0 1 736.86 656.00 C 722.43 658.55 707.12 664.61 701.18 679.39 C 700.11 682.07 698.02 683.91 695.37 681.80 Q 691.17 678.47 686.44 677.43 Q 684.65 677.04 685.84 678.43 L 697.97 692.58 Q 698.41 693.09 697.76 693.27 C 693.43 694.48 688.33 695.46 684.77 697.64 C 671.50 705.79 672.65 724.21 686.25 731.43 A 0.60 0.59 -61.7 0 1 686.49 732.24 Q 681.16 742.01 686.61 751.72 A 0.32 0.31 78.8 0 1 686.30 752.19 C 668.44 749.93 651.45 742.90 639.82 728.53 A 0.51 0.47 -10.8 0 0 639.56 728.37 Q 638.69 728.20 638.91 729.00 Q 641.49 738.34 648.65 744.70 A 0.37 0.37 0.0 0 1 648.65 745.26 Q 636.15 755.77 620.93 761.86 Q 606.35 767.71 594.36 761.93 Z"/>
  <path fill="#616b75" d=" M 897.08 650.72 C 907.30 661.01 922.50 654.11 930.51 668.17 C 940.30 685.34 938.31 711.38 966.00 710.82 Q 972.64 710.68 979.25 710.10 Q 990.18 709.14 1001.69 712.22 Q 1009.64 716.43 1013.27 722.03 Q 1017.29 728.25 1014.58 721.36 Q 1011.64 713.84 1004.67 708.63 C 996.32 702.37 984.89 699.79 974.33 700.37 A 0.74 0.74 0.0 0 1 973.57 699.77 L 971.87 690.47 Q 971.71 689.60 972.43 689.08 Q 991.37 675.55 1013.50 676.61 C 1018.72 676.86 1020.95 680.90 1021.27 685.56 Q 1021.31 688.19 1022.15 698.00 Q 1023.33 711.78 1017.50 725.24 C 1017.11 726.15 1017.25 726.43 1017.21 727.38 Q 1017.18 728.00 1016.63 727.74 C 1008.72 724.01 996.85 721.40 989.32 726.80 Q 983.68 730.84 984.94 737.17 C 987.73 751.15 1008.95 753.87 1020.14 753.95 Q 1020.71 753.96 1020.70 754.53 Q 1020.65 756.07 1019.95 757.14 Q 1018.47 759.39 1018.70 761.59 Q 1007.30 767.71 993.75 762.71 Q 977.94 756.87 964.14 745.42 A 0.64 0.64 0.0 0 1 964.13 744.45 Q 970.99 738.36 973.50 729.48 Q 974.17 727.16 972.57 728.97 C 960.41 742.78 944.87 749.70 926.81 752.08 Q 925.79 752.21 926.25 751.29 Q 930.94 742.03 926.34 732.75 Q 925.87 731.80 926.77 731.25 C 940.09 723.05 941.16 704.47 926.62 697.00 C 923.45 695.37 918.77 694.48 914.91 693.30 A 0.52 0.52 0.0 0 1 914.66 692.46 L 925.99 679.23 Q 928.49 676.32 924.89 677.64 Q 920.19 679.36 916.32 682.50 A 1.25 1.23 33.6 0 1 915.20 682.72 L 912.79 682.04 Q 912.20 681.87 912.08 681.26 C 908.63 663.78 891.42 658.36 876.03 656.27 A 0.62 0.62 0.0 0 1 875.58 655.33 C 881.05 646.39 888.51 648.32 897.08 650.72 Z"/>
  <path fill="#ffffff" d=" M 897.08 650.72 Q 911.88 654.50 926.28 658.33 C 934.73 660.57 937.66 670.02 940.27 677.75 C 943.63 687.73 949.12 706.32 962.49 706.71 C 975.92 707.09 989.72 703.65 1001.69 712.22 Q 990.18 709.14 979.25 710.10 Q 972.64 710.68 966.00 710.82 C 938.31 711.38 940.30 685.34 930.51 668.17 C 922.50 654.11 907.30 661.01 897.08 650.72 Z"/>
  <path fill="#ffffff" d=" M 713.02 651.40 Q 709.07 655.28 703.49 656.43 C 689.53 659.32 682.34 660.56 677.35 674.78 C 672.69 688.07 669.42 706.84 652.64 710.09 C 644.43 711.68 635.75 710.46 627.50 709.79 Q 621.62 709.32 611.29 711.74 Q 619.67 706.79 629.26 706.31 C 636.95 705.93 644.79 707.36 652.25 706.46 C 659.53 705.59 665.62 695.84 667.97 689.73 C 671.07 681.64 675.88 661.80 684.15 659.11 Q 690.66 656.99 713.02 651.40 Z"/>
  <path fill="#ffffff" d=" M 905.65 690.08 Q 905.81 689.40 905.55 688.49 C 900.58 671.09 884.19 666.04 867.25 666.74 C 849.36 668.04 832.79 677.16 815.34 681.13 C 812.59 681.75 809.77 681.67 806.91 681.95 Q 803.21 682.31 800.58 681.98 C 788.71 680.45 778.04 676.06 766.91 671.99 Q 753.92 667.23 740.25 667.16 C 733.25 667.41 727.98 667.40 721.66 670.75 C 714.59 674.50 710.24 682.08 708.19 689.72 Q 708.05 691.09 706.57 690.63 Q 706.08 690.48 706.00 689.97 C 704.37 679.38 713.84 669.77 722.59 666.34 C 731.23 662.94 737.49 661.35 746.51 662.56 Q 753.41 663.49 765.67 667.69 Q 777.44 671.72 789.46 674.88 C 804.51 678.83 816.95 676.71 831.61 671.50 Q 844.02 667.09 856.81 664.00 Q 877.19 659.08 895.79 668.48 C 904.74 673.00 906.65 680.76 906.45 690.19 Q 906.44 690.64 906.00 690.56 Q 905.75 690.51 905.65 690.08 Z"/>
  <path fill="#616b75" d=" M 867.25 666.74 Q 866.91 667.30 867.00 667.65 Q 867.07 667.89 867.65 668.10 Q 868.57 668.42 868.29 668.98 Q 860.61 669.41 848.01 672.68 C 843.49 673.85 844.06 675.52 844.03 679.88 Q 843.99 685.13 844.12 690.21 A 2.89 2.88 -5.1 0 0 847.45 692.99 L 859.26 691.16 L 857.93 697.25 C 854.84 696.55 851.51 695.43 848.64 695.08 C 839.96 694.03 830.62 696.30 822.20 698.29 Q 811.16 700.89 799.76 700.46 Q 797.75 700.38 795.98 699.59 Q 795.49 699.37 795.86 698.98 Q 799.52 695.16 803.04 694.84 C 808.12 694.36 812.51 693.89 811.92 687.49 Q 811.88 687.02 812.16 686.64 Q 812.60 686.03 811.99 685.25 C 809.14 681.55 803.14 682.15 799.38 683.57 Q 789.69 687.26 785.36 696.46 A 1.49 1.48 -71.0 0 1 783.69 697.28 C 774.95 695.33 767.02 693.89 758.09 696.16 Q 756.93 694.57 756.92 691.87 C 759.94 692.41 766.17 694.86 766.17 689.50 Q 766.17 684.76 765.92 676.52 C 765.85 674.49 765.41 673.84 763.45 673.20 Q 753.59 670.00 743.27 669.10 Q 742.77 669.06 742.34 668.79 Q 741.59 668.32 740.78 668.24 Q 739.87 667.75 740.25 667.16 Q 753.92 667.23 766.91 671.99 C 778.04 676.06 788.71 680.45 800.58 681.98 Q 803.21 682.31 806.91 681.95 C 809.77 681.67 812.59 681.75 815.34 681.13 C 832.79 677.16 849.36 668.04 867.25 666.74 Z"/>
  <path fill="#353537" d=" M 867.25 666.74 C 884.19 666.04 900.58 671.09 905.55 688.49 Q 905.81 689.40 905.65 690.08 Q 900.55 690.04 894.40 687.76 Q 893.44 687.40 893.50 686.37 C 893.80 681.31 891.76 675.85 887.65 673.06 C 885.18 671.37 881.29 670.53 878.17 669.55 Q 877.71 669.41 877.43 669.07 Q 877.26 668.88 877.12 668.68 Q 876.85 668.31 876.39 668.34 L 868.29 668.98 Q 868.57 668.42 867.65 668.10 Q 867.07 667.89 867.00 667.65 Q 866.91 667.30 867.25 666.74 Z"/>
  <path fill="#353537" d=" M 740.25 667.16 Q 739.87 667.75 740.78 668.24 C 738.89 668.35 737.30 666.83 735.11 668.17 Q 734.70 668.41 734.23 668.46 Q 729.70 668.87 725.72 670.86 C 722.79 672.32 721.46 671.88 719.52 675.24 Q 716.18 681.03 716.48 687.50 A 0.91 0.90 76.7 0 1 715.96 688.35 Q 712.35 690.05 708.19 689.72 C 710.24 682.08 714.59 674.50 721.66 670.75 C 727.98 667.40 733.25 667.41 740.25 667.16 Z"/>
  <path fill="#616b75" d=" M 762.43 689.96 C 755.82 688.23 749.31 687.61 742.50 688.32 Q 741.51 688.43 739.91 687.62 C 732.68 684.00 727.51 685.12 720.13 687.35 Q 719.63 687.50 719.57 686.98 C 719.13 682.89 720.45 676.52 724.90 674.93 C 737.39 670.48 748.30 672.12 761.25 675.76 Q 763.36 676.35 763.30 678.25 Q 763.13 683.89 762.98 689.55 A 0.44 0.44 0.0 0 1 762.43 689.96 Z"/>
  <path fill="#616b75" d=" M 884.29 674.68 C 888.96 676.34 890.76 681.64 890.70 686.18 Q 890.69 686.69 890.19 686.58 C 881.59 684.70 878.32 684.79 870.75 688.54 Q 870.29 688.76 869.79 688.69 Q 858.58 686.97 847.64 689.92 A 0.48 0.48 0.0 0 1 847.03 689.46 L 847.06 677.24 A 1.44 1.43 -8.3 0 1 848.08 675.88 C 859.80 672.28 872.35 670.43 884.29 674.68 Z"/>
  <path fill="#b7c4cc" d=" M 591.45 684.94 Q 591.34 687.92 590.44 697.50 Q 589.11 711.64 595.37 726.22 A 1.74 1.71 35.1 0 1 595.51 726.99 Q 595.50 727.16 595.51 727.31 Q 595.53 727.92 596.09 727.67 Q 599.18 726.30 604.75 724.72 C 612.56 722.52 627.36 723.59 627.80 734.85 C 628.40 749.92 603.45 754.48 592.89 753.73 A 1.16 1.16 0.0 0 0 591.85 755.54 Q 593.85 758.46 594.36 761.93 Q 590.89 757.89 590.11 755.13 A 0.53 0.53 0.0 0 0 589.07 755.29 L 589.32 761.57 Q 589.33 761.98 588.93 761.88 C 582.90 760.37 578.50 756.00 578.82 749.49 C 579.87 727.73 584.87 705.74 591.45 684.94 Z"/>
  <path fill="#b7c4cc" d=" M 1021.27 685.56 C 1027.75 706.08 1033.00 728.16 1033.56 749.63 C 1033.72 756.07 1029.97 760.45 1023.74 761.77 A 0.43 0.43 0.0 0 1 1023.23 761.28 Q 1023.69 758.42 1023.32 755.53 Q 1023.12 753.97 1022.33 755.33 L 1018.70 761.59 Q 1018.47 759.39 1019.95 757.14 Q 1020.65 756.07 1020.70 754.53 Q 1020.71 753.96 1020.14 753.95 C 1008.95 753.87 987.73 751.15 984.94 737.17 Q 983.68 730.84 989.32 726.80 C 996.85 721.40 1008.72 724.01 1016.63 727.74 Q 1017.18 728.00 1017.21 727.38 C 1017.25 726.43 1017.11 726.15 1017.50 725.24 Q 1023.33 711.78 1022.15 698.00 Q 1021.31 688.19 1021.27 685.56 Z"/>
  <path fill="#353537" d=" M 785.75 727.86 Q 808.16 727.54 830.75 727.82 C 833.14 727.85 834.67 724.35 835.84 722.61 Q 843.24 711.63 856.99 710.35 A 0.64 0.63 -7.6 0 0 857.56 709.62 Q 856.79 705.00 857.44 699.99 L 859.76 700.28 Q 862.17 700.58 860.73 698.74 Q 860.18 698.03 857.93 697.25 L 859.26 691.16 Q 862.42 690.34 866.19 691.32 A 0.92 0.91 26.6 0 1 866.68 692.77 C 861.18 699.69 861.94 706.20 864.94 714.09 Q 865.12 714.58 864.67 714.85 C 856.33 719.92 852.35 728.10 854.97 737.75 C 858.46 750.63 872.63 751.55 883.46 754.78 A 0.56 0.55 25.7 0 1 883.76 755.63 C 880.22 760.68 866.14 762.03 860.51 762.16 C 849.98 762.41 841.46 758.31 837.23 748.33 A 2.19 2.16 78.1 0 0 835.22 747.00 L 783.47 747.03 A 0.89 0.89 0.0 0 1 782.59 745.99 L 785.75 727.86 Z"/>
  <path fill="#353537" d=" M 756.92 691.87 Q 756.93 694.57 758.09 696.16 L 752.70 698.68 Q 747.15 701.28 753.06 700.01 Q 754.31 699.73 757.54 699.64 Q 757.95 703.65 756.63 706.88 A 1.49 1.48 24.1 0 0 757.36 708.78 Q 764.01 712.00 766.48 718.67 C 767.41 721.22 767.02 724.38 767.05 727.22 Q 767.05 727.74 767.57 727.75 L 775.77 727.91 Q 775.73 728.69 775.63 729.23 Q 772.73 745.06 770.52 752.51 Q 769.83 754.82 766.89 757.34 C 757.41 765.46 741.26 763.07 730.72 758.64 Q 728.33 757.64 726.70 755.89 A 0.43 0.43 0.0 0 1 726.91 755.18 C 734.03 753.31 744.01 751.58 749.35 748.33 C 762.32 740.45 760.73 721.95 747.73 714.86 Q 747.25 714.60 747.45 714.10 C 751.17 704.82 750.91 699.63 745.41 691.87 A 0.57 0.56 73.9 0 1 745.90 690.98 C 749.30 691.16 753.69 690.80 756.92 691.87 Z"/>
  <path fill="#ffffff" d=" M 740.32 695.43 Q 734.33 694.08 732.59 694.54 Q 715.19 699.17 697.80 703.87 C 692.36 705.35 688.46 707.11 686.32 712.05 Q 683.76 717.95 687.61 725.30 C 679.71 719.61 679.17 708.64 687.02 703.28 C 689.53 701.56 692.92 700.91 696.02 700.07 Q 711.69 695.83 727.38 691.63 Q 734.70 689.67 740.32 695.43 Z"/>
  <rect fill="#616b75" x="-31.70" y="-13.08" transform="translate(899.91,709.21) rotate(15.1)" width="63.40" height="26.16" rx="12.61"/>
  <path fill="#616b75" d=" M 740.32 695.43 Q 746.39 702.26 742.34 710.54 Q 740.06 715.18 734.21 716.80 Q 716.49 721.70 698.76 726.56 Q 692.73 728.22 687.61 725.30 Q 683.76 717.95 686.32 712.05 C 688.46 707.11 692.36 705.35 697.80 703.87 Q 715.19 699.17 732.59 694.54 Q 734.33 694.08 740.32 695.43 Z"/>
  <path fill="#616b75" d=" M 775.77 727.91 L 767.57 727.75 Q 767.05 727.74 767.05 727.22 C 767.02 724.38 767.41 721.22 766.48 718.67 Q 764.01 712.00 757.36 708.78 A 1.49 1.48 24.1 0 1 756.63 706.88 Q 757.95 703.65 757.54 699.64 C 765.85 698.66 773.82 700.57 781.87 702.35 Q 782.41 702.46 782.27 703.00 L 775.77 727.91 Z"/>
  <path fill="#616b75" d=" M 857.44 699.99 Q 856.79 705.00 857.56 709.62 A 0.64 0.63 -7.6 0 1 856.99 710.35 Q 843.24 711.63 835.84 722.61 C 834.67 724.35 833.14 727.85 830.75 727.82 Q 808.16 727.54 785.75 727.86 Q 787.21 717.12 791.29 706.11 A 1.52 1.52 0.0 0 1 793.11 705.17 C 806.15 708.68 818.14 705.99 830.82 702.47 C 838.93 700.22 849.11 698.05 857.44 699.99 Z"/>
  <path fill="#616b75" d=" M 706.12 754.53 Q 697.88 752.96 694.92 747.26 Q 691.45 740.58 696.04 733.19 Q 698.69 732.67 701.96 731.82 Q 718.25 727.59 734.49 723.17 Q 738.72 722.02 742.42 719.67 A 1.12 1.12 0.0 0 1 743.38 719.55 C 755.42 723.69 755.26 740.86 742.96 744.37 Q 724.16 749.73 706.12 754.53 Z"/>
  <path fill="#616b75" d=" M 861.48 726.71 C 862.74 723.81 867.22 718.27 870.96 720.24 C 873.07 721.35 875.07 722.38 877.43 723.02 Q 895.13 727.80 912.84 732.53 C 914.68 733.02 916.55 733.12 918.38 733.29 A 2.91 2.91 0.0 0 1 920.73 734.88 Q 924.79 742.88 920.28 749.21 C 916.38 754.69 910.85 755.69 904.51 754.02 Q 887.23 749.47 870.01 744.72 C 862.01 742.51 858.18 734.34 861.48 726.71 Z"/>
  <path fill="#ffffff" d=" M 696.04 733.19 Q 691.45 740.58 694.92 747.26 Q 697.88 752.96 706.12 754.53 C 693.75 757.21 685.25 743.57 692.72 733.61 Q 693.02 733.22 693.52 733.21 L 696.04 733.19 Z"/>
</svg>